<?xml version="1.0" encoding="UTF-8"?>
<svg width="73px" height="72px" viewBox="0 0 73 72" version="1.1" xmlns="http://www.w3.org/2000/svg" xmlns:xlink="http://www.w3.org/1999/xlink">
    <title>after-effects-cc</title>
    <defs>
        <radialGradient cx="32.9351254%" cy="22.4100935%" fx="32.9351254%" fy="22.4100935%" r="77.1514586%" gradientTransform="translate(0.329351,0.224101),scale(0.985075,1.000000),translate(-0.329351,-0.224101)" id="radialGradient-1">
            <stop stop-color="#442F55" stop-opacity="0.98" offset="0%"></stop>
            <stop stop-color="#12002C" offset="100%"></stop>
        </radialGradient>
    </defs>
    <g id="Shard" stroke="none" stroke-width="1" fill="none" fill-rule="evenodd">
        <g id="after-effects-cc" fill-rule="nonzero">
            <polygon id="Path" fill="url(#radialGradient-1)" points="3 3 70 3 70 69 3 69"></polygon>
            <path d="M3.04162579,3.07687642 L69.9583742,3.07687642 L69.9583742,68.9229995 L3.04162579,68.9229995 L3.04162579,3.07687642 Z M0,72 L73,72 L73,0 L0,0 L0,72 Z M51.6474264,34.7076821 C53.1985906,34.7076821 53.7461396,34.7076821 53.8982025,34.646152 C53.8982025,34.4307967 53.9590277,34.2768475 53.9590277,34.1230223 C53.9590277,32.4614619 53.168178,29.3845854 50.0049019,29.3845854 C47.0848038,29.3845854 45.8378881,31.9690971 45.5336396,34.7076821 L51.6474264,34.7076821 L51.6474264,34.7076821 Z M45.4729371,38.9229892 C45.5337623,43.0768902 47.4804126,45.8768812 52.1037377,45.8768812 C53.8983252,45.8768812 55.4494893,45.630885 57.0617239,44.9231649 C57.2746119,44.8308698 57.4267975,44.8616348 57.4267975,45.1385202 L57.4267975,48.9846468 C57.4267975,49.2922972 57.3355597,49.4462465 57.1226717,49.6000717 C55.5105597,50.3999628 53.5029616,50.7692673 51.0088849,50.7692673 C42.978983,50.7692673 39.9676472,44.7693397 39.9676472,38.0924571 C39.9676472,30.8309146 43.6785949,24.892517 50.2181578,24.892517 C56.8489585,24.892517 59.1606824,30.5232642 59.1606824,35.1078758 C59.1606824,36.5848459 59.0694446,37.7848067 58.9173817,38.3694665 C58.8565566,38.6155869 58.7653188,38.708006 58.5218956,38.7695361 C57.9135214,38.8618313 56.1189339,38.9847674 53.4422591,38.9847674 L45.4729371,38.9847674 L45.4729371,38.9229892 Z M29.1697101,35.7845827 C28.3180352,32.3691667 26.2496119,24.923034 25.4891748,21.3230278 L25.4283497,21.3230278 C24.7896855,24.923034 23.1166258,31.0152567 21.8695874,35.7845827 L29.1697101,35.7845827 L29.1697101,35.7845827 Z M20.6224264,40.7692639 L18.2195874,49.9692522 C18.1587623,50.2152485 18.0675245,50.3076677 17.7632761,50.3076677 L13.2920138,50.3076677 C12.9878881,50.3076677 12.9269403,50.2153725 12.9878881,49.846192 L21.6261642,19.2922869 C21.7782271,18.7385161 21.8694648,18.3076814 21.9302899,16.7693053 C21.9302899,16.55395 22.0215277,16.4616548 22.1735906,16.4616548 L28.5610906,16.4616548 C28.7739786,16.4616548 28.8652164,16.5231849 28.9261642,16.7693053 L38.5985906,49.9077221 C38.6594157,50.1537184 38.5985906,50.3076677 38.3552899,50.3076677 L33.3366013,50.3076677 C33.0933006,50.3076677 32.9411151,50.2153725 32.8802899,50.0001413 L30.3860906,40.769388 L20.6224264,40.769388 L20.6224264,40.7692639 Z" id="Shape" fill="#D8A1FF"></path>
        </g>
    </g>
</svg>