<?xml version="1.0" encoding="UTF-8"?>
<svg width="105px" height="42px" viewBox="0 0 105 42" version="1.1" xmlns="http://www.w3.org/2000/svg" xmlns:xlink="http://www.w3.org/1999/xlink">
    <!-- Generator: Sketch 52.4 (67378) - http://www.bohemiancoding.com/sketch -->
    <title>Group 15</title>
    <desc>Created with Sketch.</desc>
    <g id="New-hand-code_home" stroke="none" stroke-width="1" fill="none" fill-rule="evenodd">
        <g id="Group-15" fill="#FE7058">
            <path d="M78.7753184,27.508711 C78.9329024,27.3217182 79.0773523,27.2749707 79.2086723,27.3684671 C79.3399924,27.4619635 79.300597,27.6155624 79.0904849,27.8292685 C78.9591649,27.9628348 78.611172,28.3635276 78.0464958,29.031359 C77.4818196,29.6991905 76.7923998,30.4004029 75.9782155,31.1350175 C75.1640313,31.8696321 74.2842002,32.5307753 73.338696,33.1184669 C72.3931917,33.7061586 71.487097,34 70.6203847,34 C69.5698244,34 68.854141,33.5926289 68.4733129,32.7778746 C68.0924847,31.9631203 67.941469,30.9146407 68.020261,29.6324043 C68.099053,28.350168 68.3485573,26.9210302 68.7687815,25.344948 C69.1890056,23.7688658 69.6683165,22.212842 70.2067287,20.6768297 C70.7451409,19.1408174 71.2966767,17.725036 71.8613529,16.429443 C72.4260291,15.1338501 72.8790764,14.1120833 73.2205085,13.3641121 C73.6669966,12.4558614 74.2119666,11.4541293 74.8554348,10.3588857 C75.498903,9.26364221 76.2080206,8.1684151 76.9828088,7.07317156 C77.757597,5.97792802 78.578335,4.93612663 79.4450472,3.94773612 C80.3117595,2.95934561 81.1915905,2.13792527 82.0845668,1.48345048 C82.9775431,0.82897568 83.8508082,0.381535337 84.7043885,0.141116024 C85.5579687,-0.0993032892 86.3655749,-0.0325211484 87.1272311,0.34146445 C87.7575673,0.662023534 88.046467,1.27641923 87.993939,2.18466997 C87.941411,3.09292071 87.6393794,4.1814696 87.0878353,5.45034931 C86.5362911,6.71922902 85.7877781,8.12165398 84.8422738,9.65766625 C83.8967696,11.1936785 82.8593568,12.736346 81.7300045,14.2857149 C80.022844,16.6097683 78.1318638,18.8670046 76.0570072,21.0574917 C73.9821506,23.2479788 71.8285342,25.3983637 69.5960936,27.508711 C69.2021335,29.2183595 69.0773813,30.6207844 69.2218333,31.7160279 C69.3662854,32.8112715 69.937519,33.358885 70.9355513,33.358885 C71.7234715,33.358885 72.5573412,33.0717218 73.4371855,32.4973868 C74.3170298,31.9230518 75.1443336,31.275265 75.9191218,30.5540071 C76.69391,29.8327491 77.3439345,29.1649277 77.8692146,28.5505228 C78.3944948,27.9361179 78.6965264,27.5888508 78.7753184,27.508711 Z M86.2211273,0.982579413 C85.5382631,0.7421601 84.7700524,0.882402595 83.9164722,1.40331111 C83.0628919,1.92421962 82.1633632,2.71224888 81.2178589,3.76742253 C80.2723546,4.82259618 79.3202986,6.08477865 78.3616623,7.55400778 C77.403026,9.02323692 76.4772337,10.5926172 75.5842574,12.2621958 C74.6912811,13.9317744 73.8442796,15.6347189 73.0432273,17.3710807 C72.2421751,19.1074424 71.5527553,20.7636394 70.9749471,22.3397216 C70.8961551,22.5267144 70.7976665,22.8205558 70.6794785,23.2212547 C70.5612904,23.6219535 70.4431042,24.0560375 70.3249161,24.5235195 C70.2067281,24.9910015 70.0951077,25.4250854 69.9900517,25.8257842 C69.8849957,26.2264831 69.8062048,26.5203245 69.7536768,26.7073173 C70.462805,25.9860594 71.3229384,25.1045351 72.3341027,24.0627181 C73.345267,23.0209011 74.3958115,21.9123175 75.4857679,20.7369342 C76.5757242,19.5615509 77.6459664,18.3527941 78.6965267,17.1106277 C79.7470871,15.8684612 80.6531817,14.6864174 81.414838,13.5644606 C82.4391343,12.0952314 83.3714925,10.6527372 84.2119408,9.23693456 C85.052389,7.82113194 85.7221112,6.53891483 86.2211273,5.39024478 C86.7201435,4.24157473 86.9893455,3.27323369 87.0287415,2.48519261 C87.0681376,1.69715152 86.7989355,1.19628547 86.2211273,0.982579413 Z" id="Combined-Shape"></path>
            <path d="M88.6566367,27.7920343 C88.7606866,27.6565301 88.851729,27.6226545 88.9297664,27.6904066 C89.0078039,27.7581587 89.0208099,27.8326849 88.9687849,27.9139875 C88.91676,27.9681891 88.7086632,28.2256433 88.3444884,28.6863576 C87.9803136,29.1470719 87.5120959,29.6348798 86.9398213,30.1497958 C86.3675466,30.6647118 85.7302503,31.1186441 85.0279132,31.5116063 C84.3255761,31.9045685 83.6362556,32.060396 82.959931,31.9790935 C82.3616438,31.8977909 82.0169835,31.6064612 81.9259398,31.1050957 C81.8348961,30.6037301 81.8609082,30.0684965 82.0039769,29.4993788 C82.1470456,28.9302611 82.3161242,28.4018026 82.5112178,27.9139875 C82.7063115,27.4261723 82.7908508,27.1687182 82.7648383,27.1416173 C82.7388258,27.1145165 82.6087653,27.2025929 82.374653,27.4058492 C82.1405406,27.6091055 81.8414015,27.8801099 81.4772267,28.2188704 C81.1130519,28.5576309 80.7098645,28.9302619 80.2676522,29.3367746 C79.82544,29.7432872 79.3832344,30.1294684 78.9410221,30.4953298 C78.4988099,30.8611911 78.0826163,31.166071 77.6924291,31.4099786 C77.3022418,31.6538862 76.9770906,31.7758382 76.7169658,31.7758382 C76.1707036,31.8300398 75.9365947,31.5658106 76.0146322,30.9831425 C76.0926696,30.4004744 76.6259176,29.567136 77.614392,28.4831023 C78.6548914,27.3990686 79.4742724,26.7080075 80.0725595,26.4098982 C80.6708467,26.111789 81.1520705,25.9762868 81.5162453,26.0033876 C81.88042,26.0304885 82.1210319,26.1117898 82.2380881,26.247294 C82.3551443,26.3827982 82.4136715,26.5454008 82.4136715,26.7351067 C82.6477839,26.5725017 82.8428746,26.4640999 82.9989495,26.4098982 C83.3371118,26.3827974 83.5256995,26.4911991 83.5647182,26.7351067 C83.6037369,26.9790143 83.4801795,27.4803724 83.1940421,28.2391959 C83.0639797,28.564406 82.9534283,28.9099366 82.8623846,29.275798 C82.7713409,29.6416593 82.7258198,29.9804148 82.7258198,30.2920745 C82.7258198,30.6037342 82.7713409,30.8747385 82.8623846,31.1050957 C82.9534283,31.3354528 83.142016,31.4641799 83.4281533,31.4912807 C83.8963781,31.5454824 84.423123,31.39643 85.0084039,31.0441191 C85.5936848,30.6918081 86.1464418,30.2853016 86.6666915,29.8245873 C87.1869412,29.363873 87.6356499,28.9234909 88.0128309,28.5034278 C88.3900119,28.0833648 88.6046117,27.846236 88.6566367,27.7920343 Z M77.1851881,30.8002127 C77.3672755,30.8273136 77.6469056,30.7121367 78.0240866,30.4546787 C78.4012676,30.1972207 78.8109581,29.8787906 79.2531704,29.4993788 C79.6953826,29.119967 80.1440912,28.7202356 80.5993097,28.3001725 C81.0545282,27.8801095 81.4512127,27.5074785 81.789375,27.1822684 C81.8153875,27.1280667 81.8153875,27.0603156 81.789375,26.9790131 C81.7633625,26.8977106 81.7048353,26.8435097 81.6137916,26.8164088 C81.5227479,26.789308 81.3926874,26.789308 81.2236063,26.8164088 C81.0545251,26.8435097 80.8529314,26.924811 80.618819,27.0603152 C80.3847066,27.1958194 80.0465494,27.4600487 79.6043372,27.8530109 C79.1621249,28.2459731 78.7459314,28.6592547 78.3557441,29.0928682 C77.9655568,29.5264817 77.6404057,29.9126629 77.3802808,30.2514234 C77.120156,30.5901839 77.0551257,30.7731119 77.1851881,30.8002127 Z" id="Combined-Shape"></path>
            <path d="M95.5000587,28.345798 C95.1667628,28.6288714 94.7565586,28.9891412 94.2694339,29.4266182 C93.7823092,29.8640953 93.2503256,30.2822656 92.6734674,30.6811417 C92.0966091,31.0800178 91.5133501,31.4145541 90.9236728,31.6847605 C90.3339954,31.9549669 89.7699647,32.0514677 89.2315637,31.9742659 C88.7188008,31.922798 88.3534627,31.6397289 88.1355385,31.12505 C87.9176143,30.6103711 87.9624803,29.8126308 88.2701381,28.7318052 C88.5521577,27.7539154 88.8469919,26.904708 89.1546496,26.1841576 C89.4623074,25.4636072 89.7443227,24.8846021 90.0007042,24.4471251 C90.0776186,24.3184554 90.1865791,24.2155211 90.3275889,24.1383193 C90.4685987,24.0611175 90.6031969,24.0160837 90.7313876,24.0032168 C90.8595784,23.9903498 90.9685388,24.0160834 91.0582724,24.0804182 C91.1480059,24.1447531 91.1928719,24.2283871 91.1928719,24.3313229 C91.1928719,24.4342587 91.1415964,24.6272604 91.0390438,24.9103337 C90.9364913,25.1934071 90.8211213,25.5022098 90.6929306,25.8367511 C90.5647399,26.1712923 90.4301417,26.512262 90.2891319,26.8596702 C90.1481221,27.2070784 90.0263427,27.5094477 89.9237901,27.7667872 C89.7699613,28.1785303 89.635363,28.603134 89.5199914,29.040611 C89.4046197,29.478088 89.3341159,29.8705248 89.3084777,30.217933 C89.2828396,30.5653413 89.3341151,30.8484104 89.4623058,31.0671489 C89.5904966,31.2858874 89.8084175,31.3823883 90.1160753,31.3566543 C90.5775619,31.3309204 91.0903171,31.1507855 91.6543562,30.8162442 C92.2183954,30.4817029 92.7631978,30.1149998 93.2887798,29.7161236 C93.8143617,29.3172475 94.2758414,28.9312442 94.6732327,28.558102 C95.0706239,28.1849598 95.3077732,27.9597912 95.3846876,27.8825893 C95.5897928,27.6767178 95.7372099,27.580217 95.8269434,27.5930839 C95.9166769,27.6059509 95.9743619,27.6638514 96,27.7667872 C95.9743619,27.8182551 95.9359052,27.882589 95.8846289,27.9597908 C95.8333526,28.0369926 95.7051638,28.1656604 95.5000587,28.345798 Z" id="Path"></path>
            <path d="M92.364,21.62 C92.2679995,21.8760013 92.0920013,22.0919991 91.836,22.268 C91.5799987,22.4440009 91.3240013,22.5000003 91.068,22.436 C90.8119987,22.4039998 90.6440004,22.292001 90.564,22.1 C90.4839996,21.907999 90.5079994,21.6840013 90.636,21.428 C90.7640006,21.1399986 90.9479988,20.9080009 91.188,20.732 C91.4280012,20.5559991 91.6759987,20.4999997 91.932,20.564 C92.1880013,20.5960002 92.3559996,20.715999 92.436,20.924 C92.5160004,21.132001 92.4920006,21.3639987 92.364,21.62 Z" id="Path"></path>
            <path d="M99.1492717,21.820656 C98.9108257,22.1835329 98.7253705,22.4556865 98.5929005,22.637125 C98.4604306,22.8185634 98.3412094,22.9930208 98.2352334,23.1605025 C98.1292574,23.3279841 98.0034128,23.5512896 97.8576958,23.8304257 C97.7119788,24.1095618 97.5066535,24.5422162 97.2417135,25.128402 C97.0827495,25.5191925 96.8972943,26.000695 96.6853424,26.572924 C96.4733904,27.1451529 96.2746884,27.6964384 96.0892304,28.226797 C95.9037725,28.7571555 95.7646811,29.2037665 95.6719521,29.5666434 C95.5792231,29.9295203 95.5725997,30.0830429 95.6520817,30.0272156 C95.7845517,29.9434748 95.9501367,29.7341259 96.1488416,29.3991626 C96.3475466,29.0641993 96.6323528,28.6455015 97.0032687,28.1430565 C97.4536667,27.5289572 97.9769152,26.9497585 98.5730301,26.4054432 C99.1691451,25.8611278 99.798368,25.3935819 100.460718,25.0027914 C101.123068,24.6120009 101.785408,24.3189124 102.447758,24.1235171 C103.110108,23.9281219 103.745954,23.8722955 104.355316,23.9560363 C104.620256,23.9839499 104.799088,24.0397763 104.891817,24.1235171 C104.984546,24.207258 105.017663,24.2909975 104.991169,24.3747383 C104.964675,24.4584792 104.911687,24.5282621 104.832205,24.5840894 C104.752723,24.6399166 104.699736,24.6678298 104.673242,24.6678298 C104.249338,24.5003481 103.779077,24.4584783 103.262444,24.5422192 C102.745811,24.62596 102.229186,24.7864608 101.712553,25.0237265 C101.19592,25.2609921 100.692542,25.5540806 100.202403,25.9030007 C99.7122638,26.2519208 99.2817429,26.607814 98.9108269,26.9706909 C98.513417,27.389395 98.1623768,27.8011145 97.8576958,28.2058618 C97.5530149,28.6106092 97.2682087,29.0083721 97.0032687,29.3991626 C96.5263768,30.0690892 96.18196,30.6343313 95.970008,31.0949058 C95.7580561,31.5554803 95.5858477,31.9323084 95.4533777,32.2254013 C95.3209077,32.5184941 95.1950631,32.7208648 95.0758401,32.8325192 C94.9566172,32.9441736 94.7777854,33 94.5393394,33 C94.3273874,33 94.1816726,32.8883472 94.1021907,32.6650384 C94.0227087,32.4417295 93.9895917,32.148641 94.0028387,31.7857641 C94.0160857,31.4228872 94.0624495,31.0041894 94.1419315,30.5296581 C94.2214134,30.0551267 94.3273878,29.5666459 94.4598578,29.064201 C94.5658338,28.5896697 94.7446656,27.9965144 94.9963586,27.2847174 C95.2480515,26.5729204 95.5461045,25.8471775 95.8905265,25.1074669 C96.2349484,24.3677563 96.6058588,23.65597 97.0032687,22.9720866 C97.4006787,22.2882032 97.8113294,21.7369177 98.2352334,21.3182136 C98.3412094,21.2065592 98.4869242,21.1228196 98.6723821,21.0669924 C98.8578401,21.0111652 99.0168017,20.9902303 99.1492717,21.0041871 C99.2817417,21.0181439 99.3612225,21.0879269 99.3877165,21.2135381 C99.4142104,21.3391493 99.3347297,21.5415199 99.1492717,21.820656 Z" id="Path"></path>
            <path d="M76.9086368,9.45512598 C77.2021043,10.7907263 76.7885881,12.1535634 75.6680756,13.543678 C74.6542786,14.8520212 73.1602844,16.0649461 71.1860481,17.1824893 C69.0784175,18.3545467 66.4772668,19.5129582 63.3825181,20.6577585 C62.1019324,21.12113 60.7613394,21.5708663 59.3606988,22.0069807 C57.9600582,22.4430951 56.4727336,22.8655745 54.8986803,23.2744318 C53.6714524,23.6287747 52.4975998,23.9217847 51.3770873,24.1534705 C50.2565748,24.3851562 49.2694715,24.5827676 48.4157477,24.7463105 C49.2427926,24.9098534 50.1365213,25.114279 51.0969606,25.3595933 C52.0573998,25.6049077 53.0178247,25.9047318 53.978264,26.2590748 C56.5127565,27.1313035 58.3802493,28.0989178 59.5807983,29.1619467 C61.2348882,30.6338328 61.7151006,32.2283521 61.02145,33.9455525 C60.6479459,34.9540671 60.0410107,35.8535395 59.2006264,36.6439969 C58.360242,37.4344542 57.3731387,38.1295011 56.2392868,38.7291584 C55.1054349,39.3288157 53.8648861,39.8398796 52.5176032,40.2623654 C51.1703204,40.6848512 49.8030489,41.0255605 48.4157477,41.2845034 C47.0284465,41.5434463 45.6545054,41.7274293 44.2938831,41.8364579 C42.9332608,41.9454865 41.6660336,42 40.4921634,42 C40.0119438,42 39.4050086,41.9659291 38.6713397,41.8977862 C37.9376708,41.8296433 37.1773345,41.7138022 36.3903079,41.5502593 C35.6032812,41.3867164 34.8429449,41.1754766 34.109276,40.9165337 C33.3756071,40.6575908 32.7620024,40.3441383 32.2684433,39.9761668 C31.7748842,39.6081952 31.4547426,39.1652732 31.3080088,38.6473873 C31.1612751,38.1295015 31.2879978,37.5434816 31.6881808,36.88931 C31.848254,36.6167385 32.0283337,36.4395697 32.2284252,36.3577982 C32.4285167,36.2760268 32.6085964,36.24877 32.7686696,36.2760272 C32.9287428,36.3032843 33.0554655,36.3577978 33.1488416,36.4395693 C33.2422176,36.5213407 33.2755657,36.5894826 33.2488868,36.6439969 C32.7686672,37.4071971 32.7753368,38.0749872 33.2688959,38.6473873 C33.7624549,39.2197875 34.5828178,39.6831521 35.7300092,40.037495 C36.8772005,40.391838 38.244472,40.6371486 39.8318647,40.7734344 C41.4192574,40.9097201 43.079992,40.9233485 44.8141185,40.8143199 C46.0947042,40.7325485 47.5353414,40.5144945 49.1360736,40.1601516 C50.7368057,39.8058086 52.2908264,39.3356299 53.7981825,38.7496012 C55.3055386,38.1635724 56.6461316,37.4617114 57.8200018,36.6439969 C58.993872,35.8262824 59.7808868,34.8995532 60.1810699,33.8637815 C60.4478586,33.1550956 60.4078409,32.4804913 60.0610156,31.8399482 C59.7141903,31.1994052 59.1939601,30.5929427 58.5003096,30.0205426 C57.3531182,29.0120281 55.6190178,28.0989272 53.2979562,27.2812128 C52.5776268,27.0358984 51.8439689,26.8110303 51.0969606,26.6066017 C50.3499523,26.4021731 49.6429729,26.2250042 48.9760011,26.0750899 C48.3090294,25.9251756 47.688755,25.7957061 47.1151594,25.6866775 C46.5415637,25.5776489 46.0680209,25.4958786 45.6945167,25.4413643 C45.5611224,25.4141072 45.4677477,25.3391512 45.41439,25.216494 C45.3610323,25.0938368 45.3610323,24.9711815 45.41439,24.8485243 C45.4677477,24.7258671 45.5811312,24.6168402 45.7545439,24.5214401 C45.9279565,24.4260401 46.1747324,24.3783408 46.4948788,24.3783408 C46.5482365,24.3510837 46.6149327,24.3374553 46.6949693,24.3374553 C46.7750059,24.3374553 46.8417021,24.3238269 46.8950598,24.2965698 C47.7754625,24.1057697 48.8759493,23.8536449 50.1965533,23.5401877 C51.5171573,23.2267304 52.9644642,22.8655786 54.5385174,22.4567214 C56.245965,21.9933498 57.8933604,21.5027285 59.4807531,20.9848427 C61.0681458,20.4669568 62.5688096,19.9422646 63.9827896,19.4107501 C65.3967697,18.8792357 66.697345,18.3477293 67.8845546,17.8162148 C69.0717643,17.2847004 70.1055549,16.7600082 70.9859576,16.2421223 C72.7734418,15.2336078 74.0940259,14.1297098 74.9477497,12.9303952 C75.8014735,11.7310806 76.1349544,10.7089528 75.9482023,9.86398118 C75.7347714,8.88272379 74.974435,8.01732227 73.6671705,7.26775065 C72.3599059,6.51817904 70.5591093,5.91171655 68.2647266,5.44834501 C65.8102707,4.95771631 62.8556303,4.58975031 59.4007169,4.34443596 C55.9458034,4.09912162 52.0173989,4.07186488 47.6153857,4.26266492 C47.0818083,5.68003671 46.3481504,7.71747809 45.41439,10.3750502 C44.4806296,13.0326223 43.4401693,16.18759 42.292978,19.8400481 C41.8394372,21.2301627 41.4125817,22.6066281 41.0123987,23.9694856 C40.6122157,25.3323431 40.2253779,26.7088085 39.8518737,28.0989232 C39.6384428,28.807609 39.4450239,29.5299127 39.2716113,30.2658557 C39.0981986,31.0017988 38.9314582,31.7241024 38.771385,32.4327883 L38.5112673,33.7615677 C38.4178913,34.2385678 38.3378559,34.7155608 38.2711587,35.1925609 C38.2044615,35.669561 38.1644438,36.1192972 38.1511044,36.5417831 C38.1377649,36.9642689 38.1577738,37.3254207 38.2111315,37.6252493 C38.2644893,38.0341066 38.07774,38.3748159 37.6508781,38.6473873 C37.4374472,38.7564159 37.2373586,38.7768585 37.0506066,38.7087156 C36.8638545,38.6405728 36.7304621,38.5247316 36.6504255,38.3611887 C36.6237467,38.3339316 36.6104074,38.3066748 36.6104074,38.2794177 C36.6104074,38.2521605 36.5970682,38.2112754 36.5703893,38.1567611 C36.4636739,37.6933896 36.4503346,37.1618831 36.5303712,36.5622258 C36.6637656,35.1175969 36.9238806,33.6457329 37.3107242,32.1465896 C37.6975678,30.6474464 38.1310929,29.012042 38.6113126,27.2403272 C38.718028,26.8587271 38.9247862,26.1773086 39.2315932,25.1960512 C39.5384001,24.2147938 39.9052291,23.0563824 40.332091,21.720782 C40.7589529,20.3851817 41.2324957,18.9337602 41.7527336,17.3664741 C42.2729716,15.799188 42.7998713,14.2319254 43.3334487,12.6646393 C43.867026,11.0973532 44.3939258,9.58460409 44.9141637,8.12634658 C45.4344017,6.66808907 45.9079445,5.39383643 46.3348064,4.30355044 C41.0523904,4.60337909 35.6900183,5.15532809 30.2475291,5.95941401 C24.8050399,6.76349993 19.109187,7.84695537 13.1597993,9.20981286 C12.012608,9.48238436 10.8721034,9.76858014 9.73825152,10.0684088 C8.60439961,10.3682374 7.53726088,10.647619 6.53680331,10.9065619 C5.53634574,11.1655049 4.62927782,11.4108155 3.81557233,11.6425013 C3.00186684,11.8741871 2.34157475,12.0717985 1.83467625,12.2353413 C1.64792417,12.3171128 1.56788877,12.3852547 1.59456764,12.4397689 C1.62124651,12.4942832 1.5812288,12.5487967 1.47451333,12.603311 C1.44783446,12.6305682 1.38113829,12.6714533 1.27442282,12.7259676 C1.16770734,12.7804819 1.04765424,12.8281812 0.914259893,12.8690669 C0.780865551,12.9099526 0.640803592,12.9303952 0.494069816,12.9303952 C0.347336039,12.9303952 0.233952549,12.8895101 0.153915943,12.8077386 C0.0205216009,12.6714529 -0.0261657186,12.5419834 0.0138525841,12.4193262 C0.0538708868,12.296669 0.133906292,12.1876421 0.2539612,12.092242 C0.374016108,11.996842 0.507408449,11.921886 0.654142226,11.8673717 C0.800876003,11.8128574 0.914259493,11.7719723 0.994296098,11.7447151 C1.68794668,11.4994008 3.05521818,11.0701071 5.09615162,10.4568212 C7.13708506,9.84353536 9.69154839,9.18255939 12.7596183,8.4738735 C15.5875783,7.79244475 18.4821921,7.1723539 21.4435465,6.61358233 C24.4049009,6.05481076 27.3462021,5.55737524 30.2675382,5.12126085 C33.1888743,4.68514645 36.0434704,4.32399464 38.8314121,4.03779456 C41.6193539,3.75159449 44.2538526,3.52672638 46.7349874,3.36318348 C46.8950606,2.98158339 47.0417922,2.63405994 47.1751865,2.32060272 C47.3085809,2.0071455 47.428634,1.74139227 47.5353494,1.52333508 C47.6687438,1.08722068 47.9488677,0.923680236 48.3757296,1.03270883 C48.5891605,1.08722313 48.6892048,1.20306428 48.6758654,1.38023576 C48.6625259,1.55740723 48.6158386,1.74139023 48.535802,1.93219028 C48.5091231,1.98670458 48.4490966,2.12980247 48.3557205,2.36148824 C48.2623445,2.59317401 48.148961,2.91344072 48.0155667,3.32229796 C56.6861989,2.99521217 63.4625299,3.32229306 68.3447628,4.30355044 C70.9326131,4.82143629 72.9468374,5.54373992 74.3874963,6.47048301 C75.8014763,7.3427118 76.6418481,8.33758284 76.9086368,9.45512598 Z" id="Path"></path>
        </g>
    </g>
</svg>