<?xml version="1.0" encoding="UTF-8"?>
<svg width="409px" height="310px" viewBox="0 0 409 310" version="1.1" xmlns="http://www.w3.org/2000/svg" xmlns:xlink="http://www.w3.org/1999/xlink">
    <title>undraw_redesign_feedback_48ti</title>
    <g id="Shard" stroke="none" stroke-width="1" fill="none" fill-rule="evenodd">
        <g id="undraw_redesign_feedback_48ti" transform="translate(204.500000, 155.000000) scale(-1, 1) translate(-204.500000, -155.000000) " fill-rule="nonzero">
            <path d="M310.014438,298 C309.957534,297.908831 308.615773,295.712248 308.150602,291.150996 C307.723935,286.966282 307.99829,279.912626 311.72935,270.073352 C318.797728,251.433491 310.100403,236.393857 310.011533,236.244062 L310.440622,236 C312.115283,239.142023 313.324948,242.501897 314.033173,245.978398 C315.784934,254.073521 315.14705,262.490494 312.19428,270.242886 C305.138005,288.850919 310.383959,297.659798 310.437717,297.746693 L310.014438,298 Z" id="Path" fill="#E6E6E6"></path>
            <circle id="Oval" fill="#3F3D56" cx="307.5" cy="233.5" r="2.5"></circle>
            <circle id="Oval" fill="#3F3D56" cx="319.5" cy="245.5" r="2.5"></circle>
            <circle id="Oval" fill="#E6E6E6" cx="312.5" cy="252.5" r="2.5"></circle>
            <circle id="Oval" fill="#E6E6E6" cx="319.5" cy="257.5" r="2.5"></circle>
            <circle id="Oval" fill="#3F3D56" cx="309.5" cy="270.5" r="2.5"></circle>
            <path d="M313.518518,297 C313.518518,297 310.277779,290.142855 320,285 L313.518518,297 Z" id="Path" fill="#E6E6E6"></path>
            <path d="M310,297 C310,297 308.626979,289.93989 298,290.000387 L310,297 Z" id="Path" fill="#E6E6E6"></path>
            <ellipse id="Oval" fill="#3F3D56" cx="332" cy="301.5" rx="77" ry="8.5"></ellipse>
            <rect id="Rectangle" fill="#3F3D56" x="0" y="0" width="325" height="208"></rect>
            <circle id="Oval" fill="#F9A826" cx="9.5" cy="7.5" r="2.5"></circle>
            <circle id="Oval" fill="#F9A826" cx="19.5" cy="7.5" r="2.5"></circle>
            <circle id="Oval" fill="#F9A826" cx="29.5" cy="7.5" r="2.5"></circle>
            <rect id="Rectangle" fill="#E6E6E6" x="196" y="85" width="55" height="2"></rect>
            <rect id="Rectangle" fill="#F9A826" x="196" y="97" width="87" height="2"></rect>
            <rect id="Rectangle" fill="#E6E6E6" x="196" y="109" width="69" height="2"></rect>
            <rect id="Rectangle" fill="#E6E6E6" x="196" y="119" width="40" height="2"></rect>
            <rect id="Rectangle" fill="#E6E6E6" x="196" y="132" width="62" height="2"></rect>
            <rect id="Rectangle" fill="#E6E6E6" x="171" y="85" width="7" height="7"></rect>
            <rect id="Rectangle" fill="#F9A826" x="171" y="94" width="7" height="7"></rect>
            <rect id="Rectangle" fill="#E6E6E6" x="171" y="107" width="7" height="7"></rect>
            <rect id="Rectangle" fill="#E6E6E6" x="171" y="117" width="7" height="7"></rect>
            <rect id="Rectangle" fill="#E6E6E6" x="171" y="129" width="7" height="7"></rect>
            <path d="M260,129 L243.827721,129 C242.724093,123.375101 242.724093,117.624899 243.827721,112 L260,112 C258.178059,117.552837 258.178063,123.447164 260,129 L260,129 Z" id="Path" fill="#FF6584"></path>
            <circle id="Oval" fill="#F9A826" cx="86" cy="100" r="41"></circle>
            <path d="M87,64 L82,64 L82,59 L87,59 L87,64 Z M83,63 L86,63 L86,60 L83,60 L83,63 Z" id="Shape" fill="#FFFFFF"></path>
            <rect id="Rectangle" fill="#FFFFFF" x="87" y="60" width="25" height="2"></rect>
            <circle id="Oval" fill="#FFFFFF" cx="110" cy="61" r="1"></circle>
            <rect id="Rectangle" fill="#FFFFFF" x="59" y="60" width="25" height="2"></rect>
            <circle id="Oval" fill="#FFFFFF" cx="58" cy="61" r="1"></circle>
            <path d="M129,104 L124,104 L124,99 L129,99 L129,104 Z M125,103 L128,103 L128,100 L125,100 L125,103 Z" id="Shape" fill="#FFFFFF"></path>
            <rect id="Rectangle" fill="#FFFFFF" x="124" y="102" width="2" height="25"></rect>
            <circle id="Oval" fill="#FFFFFF" cx="128" cy="128" r="1"></circle>
            <rect id="Rectangle" fill="#FFFFFF" x="124" y="74" width="2" height="25"></rect>
            <circle id="Oval" fill="#FFFFFF" cx="128" cy="76" r="1"></circle>
            <path d="M47,104 L42,104 L42,99 L47,99 L47,104 Z M43,103 L46,103 L46,100 L43,100 L43,103 Z" id="Shape" fill="#FFFFFF"></path>
            <rect id="Rectangle" fill="#FFFFFF" x="42" y="102" width="2" height="25"></rect>
            <circle id="Oval" fill="#FFFFFF" cx="43" cy="128" r="1"></circle>
            <rect id="Rectangle" fill="#FFFFFF" x="42" y="74" width="2" height="25"></rect>
            <circle id="Oval" fill="#FFFFFF" cx="43" cy="76" r="1"></circle>
            <path d="M87,146 L82,146 L82,141 L87,141 L87,146 Z M83,145 L86,145 L86,142 L83,142 L83,145 Z" id="Shape" fill="#FFFFFF"></path>
            <rect id="Rectangle" fill="#FFFFFF" x="87" y="142" width="25" height="2"></rect>
            <circle id="Oval" fill="#FFFFFF" cx="110" cy="143" r="1"></circle>
            <rect id="Rectangle" fill="#FFFFFF" x="59" y="142" width="25" height="2"></rect>
            <circle id="Oval" fill="#FFFFFF" cx="58" cy="143" r="1"></circle>
            <path d="M109,164 L92.8277217,164 C91.7240928,156.720719 91.7240928,149.279281 92.8277217,142 L109,142 C107.178065,149.186024 107.178065,156.813976 109,164 L109,164 Z" id="Path" fill="#E6E6E6"></path>
            <path d="M344.928444,159 L340.624016,175.418078 C340.624016,175.418078 338.471802,188.678852 342.161302,188.994577 C345.850801,189.310303 344.928435,175.733803 344.928435,175.733803 L352,164.367426 L344.928444,159 Z" id="Path" fill="#FBBEBE"></path>
            <path d="M375.388646,167.861019 L375.388646,162.935288 L346.627549,161 L342.080081,190.026815 C342.080081,190.026815 341.474471,218.965488 343.594097,233.742682 C345.713723,248.519876 349.953003,283 349.953003,283 L369.332534,283 L364.487643,211.269032 L386.289617,283 L409,280.22928 L382.655971,195.56826 C382.655971,195.56826 382.958779,179.867493 375.388646,167.861019 Z" id="Path" fill="#2F2E41"></path>
            <path d="M351.408605,280 L350.289369,289.45122 L348.610519,296.158537 C348.610519,296.158537 340.775871,297.987807 345.532622,301.036589 C350.289373,304.085372 354.766309,301.036589 354.766309,301.036589 L358.403824,295.54878 L358.403824,305 L364,305 L364,291.585375 L359.802871,281.52438 L351.408605,280 Z" id="Path" fill="#2F2E41"></path>
            <path d="M389.408606,280 L388.289371,289.45122 L386.610517,296.158537 C386.610517,296.158537 378.775874,297.987807 383.53262,301.036589 C388.289366,304.085372 392.76631,301.036589 392.76631,301.036589 L396.403825,295.54878 L396.403825,305 L402,305 L402,291.585375 L397.802867,281.524398 L389.408606,280 Z" id="Path" fill="#2F2E41"></path>
            <circle id="Oval" fill="#FBBEBE" cx="364" cy="102" r="10"></circle>
            <polygon id="Path" fill="#FBBEBE" points="370.599889 107 379 115.680558 368.80013 119 364 110.829762"></polygon>
            <path d="M366.006533,116.784799 L367.399032,116.388457 C367.399032,116.388457 374.645864,111.715491 376.661712,112.013688 C378.67756,112.311885 385.013066,118.87216 383.861155,127.817999 C382.709243,136.763837 385.013066,170.161617 380.405423,168.968843 C375.79778,167.776069 374.357888,166.881482 374.357888,166.881482 L368.886309,164.197727 L363.702709,165.688689 C363.702709,165.688689 360.534954,163.601328 357.943154,164.197727 C355.351355,164.794126 347,161.812173 347,161.812173 L366.006533,116.784799 Z" id="Path" fill="#E6E6E6"></path>
            <path d="M367.84321,117.045003 C367.84321,117.045003 360.856165,113.854826 357.765007,118.62238 C354.67385,123.389934 346.018528,148.717597 346.018528,148.717597 L342,160.338526 L351.89177,166 L371.366195,131.435195 C371.366195,131.435195 374.212015,121.1291 367.84321,117.045003 Z" id="Path" fill="#E6E6E6"></path>
            <path d="M362.259818,101.675328 C361.600019,100.674301 361.933461,99.3131906 361.470744,98.210012 C360.744143,96.4776705 358.485911,96.0718433 356.590929,95.9137863 C355.33556,95.7549454 354.064526,95.7582983 352.810037,95.9237602 C351.685943,96.1079525 350.714908,96.8019204 350.187831,97.7977685 C349.907463,98.3520074 349.978212,96.615484 350.157832,94.3863205 C350.530975,89.7189719 353.919028,85.8232137 358.541437,84.7464206 C358.568207,84.7402219 358.594738,84.7341327 358.621029,84.7281531 C360.928225,84.2035167 363.30719,83.8174307 365.658808,84.0897486 C368.010427,84.3620665 370.354412,85.3626853 371.822017,87.1942213 C372.492783,88.0313151 372.96708,89.0184399 373.715847,89.7885889 C375.031431,91.1417533 376.981748,91.6341118 378.773272,92.2619791 C380.8272,92.9148354 382.717282,93.9896985 384.318738,95.4156078 C385.925273,96.8627607 386.888408,98.8757485 386.999341,101.018168 C387.037192,103.490395 385.44174,106.04175 382.870903,106.529161 C382.423861,106.606008 382.001499,106.785671 381.638101,107.053568 C379.183358,108.929669 381.983576,110.893617 381.964172,113.005684 C381.947982,114.76805 379.957595,115.916654 378.171485,115.998839 C374.727552,116.059901 371.722652,113.706857 371.00414,110.386314 C370.734885,108.939995 370.942804,107.454518 371.117973,105.994223 C371.318483,104.322635 367.666456,100.386598 370.078886,103.271607 C370.549707,103.819948 370.86758,104.47967 371.001226,105.185858 C371.402741,107.490622 369.27496,108.265868 367.933163,109.542926 C366.43019,111.016587 365.908201,113.204476 366.587319,115.18396 C364.304741,113.14568 363.815561,109.795325 365.422366,107.205288 C365.854599,106.551883 366.411489,105.983432 366.821351,105.316181 C367.460937,104.275 367.637319,102.010343 365.847109,102.072534 C364.569352,102.116921 363.242021,103.165508 362.259818,101.675328 Z" id="Path" fill="#2F2E41"></path>
            <polygon id="Path" fill="#000000" opacity="0.2" points="367 141.298524 355 164 366.357495 139"></polygon>
            <rect id="Rectangle" fill="#F9A826" x="255" y="280" width="22" height="22"></rect>
            <rect id="Rectangle" fill="#E6E6E6" x="270" y="293" width="12" height="12"></rect>
            <path d="M315,199 L10,199 L10,15 L315,15 L315,199 Z M10.9214502,198.068354 L314.07855,198.068354 L314.07855,15.9316456 L10.9214502,15.9316456 L10.9214502,198.068354 Z" id="Shape" fill="#E6E6E6"></path>
        </g>
    </g>
</svg>