<?xml version="1.0" encoding="UTF-8"?>
<svg width="348px" height="292px" viewBox="0 0 348 292" version="1.1" xmlns="http://www.w3.org/2000/svg" xmlns:xlink="http://www.w3.org/1999/xlink">
    <title>undraw_online_collaboration_7pfp</title>
    <g id="Shard" stroke="none" stroke-width="1" fill="none" fill-rule="evenodd">
        <g id="undraw_online_collaboration_7pfp" transform="translate(174.000000, 146.000000) scale(-1, 1) translate(-174.000000, -146.000000) " fill-rule="nonzero">
            <rect id="Rectangle" fill="#E6E6E6" x="7" y="0" width="318" height="203"></rect>
            <rect id="Rectangle" fill="#FFFFFF" x="16" y="24" width="300" height="168"></rect>
            <rect id="Rectangle" fill="#F9A826" x="7" y="0" width="318" height="13"></rect>
            <circle id="Oval" fill="#FFFFFF" cx="15.5" cy="8.5" r="2.5"></circle>
            <circle id="Oval" fill="#FFFFFF" cx="25.5" cy="8.5" r="2.5"></circle>
            <circle id="Oval" fill="#FFFFFF" cx="33.5" cy="8.5" r="2.5"></circle>
            <polygon id="Path" fill="#A0616A" points="344.291754 262 347 272.00015 335.083509 275 334 264.500281"></polygon>
            <polygon id="Path" fill="#A0616A" points="304 273.925735 304 283.073796 292.999738 285 291 280.18496 294.999963 272"></polygon>
            <path d="M325.023437,177 L323.640636,189.625001 L324.562503,213.939824 C324.562503,213.939824 324.562503,216.277773 325.945309,217.212969 C326.687036,217.723953 343,263.972233 343,263.972233 C343,263.972233 339.312503,268.648167 332.398448,267.245378 L331.015643,262.56943 C331.015643,262.56943 329.171885,256.490728 328.250018,255.087957 C327.328151,253.685186 313.500018,225.162021 313.500018,225.162021 L307.046901,213.472199 L305.20313,229.370358 C305.20313,229.370358 308.890627,249.476849 307.968755,258.828705 C307.046883,268.18056 305.20313,278 305.20313,278 L294.140627,276.129622 C294.090493,274.620721 293.610167,273.158931 292.757821,271.921294 C291.375016,270.050916 291.835954,263.504621 291.835954,263.504621 L291.835954,262.10185 L289.070307,226.097226 L284,178.870374 L325.023437,177 Z" id="Path" fill="#2F2E41"></path>
            <circle id="Oval" fill="#A0616A" cx="294" cy="78" r="12"></circle>
            <polygon id="Path" fill="#A0616A" points="305.762103 81 311 93.9128209 298.61918 103 291 89.6083922"></polygon>
            <path d="M305.555026,88.3815044 L310.432854,86 L313.359546,92.6682069 C313.359546,92.6682069 332.383046,98.3838194 330.919707,124.580377 C329.456369,150.776935 326.041846,160.77926 326.041846,160.77926 C326.041846,160.77926 334.334149,177.926092 329.456316,179.831295 C324.578484,181.736498 283.117017,188.881006 282.141456,182.212795 C281.165895,175.544583 285.555926,136.4879 285.555926,136.4879 C285.555926,136.4879 284.092587,108.386139 296.287124,102.670531 L293.848262,97.4312389 L305.555026,88.3815044 Z" id="Path" fill="#3F3D56"></path>
            <path d="M279.275655,178 C279.275655,178 267.306578,188.934236 274.071715,191.667796 C280.836853,194.401357 285,179.366778 285,179.366778 L279.275655,178 Z" id="Path" fill="#A0616A"></path>
            <path d="M299.35724,280.780495 L304.308607,278.829267 C304.308607,278.829267 309.710089,292 305.208846,292 L293.505652,292 C293.505652,292 286.753806,289.560971 283.152821,289.560971 C279.551836,289.560971 272.799973,282.243898 277.751339,278.829267 C282.702705,275.414636 289.004427,276.390238 289.004427,276.390238 L290.804928,272 L293.055549,278.829262 C293.055549,278.829262 295.756255,283.707325 299.35724,280.780495 Z" id="Path" fill="#2F2E41"></path>
            <path d="M339.332229,270.871585 C339.332229,270.871585 342.475616,268.980452 344.166721,269.686732 C345.857827,270.393012 346.861748,278.050606 346.861748,278.050606 C346.861748,278.050606 351.881432,283.793819 340.838142,284.751007 C329.794852,285.708196 327.285032,283.793814 326.281101,280.92221 C325.27717,278.050606 327.285032,275.178998 327.285032,275.178998 L330.296835,274.221804 C330.296835,274.221804 333.810601,271.828793 332.806674,270.871604 C331.802748,269.914415 332.806674,268 332.806674,268 C332.806674,268 336.320426,274.700387 339.332229,270.871585 Z" id="Path" fill="#2F2E41"></path>
            <path d="M297.968022,80.5702887 C297.915697,80.1667781 297.822022,79.7693317 297.688387,79.3838456 C296.997393,77.9779481 294.301346,78.3882969 293.82094,76.9021734 C293.726927,76.6113212 293.746574,76.2949369 293.654464,76.0035186 C293.419547,75.2604276 292.51836,74.8918698 291.71776,74.9275193 C290.923641,75.0338649 290.144757,75.2283702 289.396437,75.5072066 C287.512808,76.0256406 285.508816,75.8277421 283.561934,75.6256339 C282.693805,75.5973205 281.842973,75.3825269 281.070794,74.9967427 C280.33348,74.5568813 279.802264,73.671399 280.070684,72.8732726 C280.328027,72.1080462 281.191501,71.6875574 281.579742,70.9761489 C282.196235,69.8465068 281.442618,68.3875327 281.942764,67.2050341 C282.745045,65.308117 285.78122,65.6890073 287.323739,64.286933 C287.698161,63.9466073 287.967772,63.5115486 288.326625,63.1558219 C289.39136,62.1004171 291.072856,61.8961075 292.587913,62.0417111 C294.102971,62.1873147 295.591794,62.6187747 297.114041,62.5926677 C298.557674,62.5679085 300.070957,62.1415612 301.401133,62.6861156 C302.183504,63.0743447 302.870383,63.6215769 303.414965,64.2905227 L306.826808,67.9194887 C307.295299,68.3479057 307.656086,68.8749393 307.881351,69.4599558 C308.086616,70.1552804 307.897677,70.9018173 307.98526,71.6200727 C308.184974,73.2581614 309.766301,74.4954483 309.979663,76.1319242 C310.022682,76.6394523 309.997386,77.1502524 309.904411,77.6514463 L309.426516,81.0688291 C309.402484,81.4020867 309.310984,81.7274873 309.157243,82.0264415 C309.018266,82.2567233 308.808115,82.4385964 308.651659,82.6580913 C308.209888,83.2778085 308.250206,84.0969741 308.030673,84.8196548 C307.811154,85.5422546 307.023901,86.2574235 306.335265,85.9091322 C305.886003,85.6819099 305.58876,83.8028197 305.042988,83.3149585 C304.282784,82.6354256 303.885671,82.7191784 302.947354,82.7306797 C301.068126,82.7537317 298.56932,82.9100054 297.968022,80.5702887 Z" id="Path" fill="#2F2E41"></path>
            <path d="M301.190142,105.018035 C301.190142,105.018035 314.163681,110.693388 310.271617,123.462932 C306.379554,136.232477 296.000713,175.486976 296.000713,175.486976 L289.946397,178.797595 L288.216583,184 L280,180.689382 L281.297345,173.595189 L284.324503,166.501006 L292.108638,113.531059 C292.108638,113.531059 292.108642,104.54508 301.190142,105.018035 Z" id="Path" fill="#3F3D56"></path>
            <polygon id="Path" fill="#000000" opacity="0.1" points="311 128 295.499889 176.10051 289 182 292.750011 175.87359"></polygon>
            <path d="M22.048902,134 L24.9736266,153.66265 L37.32241,174.554217 C40.8970535,177.626507 37.6473767,185 37.6473767,185 L34.3977,182.849399 L33.7477666,179.162652 C33.7477666,179.162652 19.4491732,163.801187 15.8745151,160.11444 C12.2998571,156.427694 11,136.150601 11,136.150601 L22.048902,134 Z" id="Path" fill="#FBBEBE"></path>
            <path d="M14.590794,268.591987 C14.590794,268.591987 15.2301784,275.476629 14.9104862,277.272623 C14.590794,279.068616 5,276.973291 5,276.973291 C6.59846567,273.979967 7.55754699,265 7.55754699,265 L14.590794,268.591987 Z" id="Path" fill="#FBBEBE"></path>
            <path d="M60.2936563,269.897985 C60.2936563,269.897985 61.2550713,279.476606 60.9345964,281.272616 C60.6141216,283.068626 51,280.97328 51,280.97328 C52.6023552,277.979964 53.5637654,269 53.5637654,269 L60.2936563,269.897985 Z" id="Path" fill="#FBBEBE"></path>
            <circle id="Oval" fill="#FBBEBE" cx="41" cy="103" r="11"></circle>
            <path d="M41.7973872,115.325001 C39.815215,117.791666 40.8063035,122.108335 40.8063035,122.108335 C40.8063035,122.108335 20.6542006,144 17.0202521,144 C13.3863036,144 14.0469765,128.583332 14.0469765,128.583332 C14.0469765,128.583332 19.3327707,122.725 22.3060512,121.491666 C25.2793318,120.258331 30.5651012,107 30.5651012,107 C30.5651012,107 43.7795594,112.858332 41.7973872,115.325001 Z" id="Path" fill="#FBBEBE"></path>
            <path d="M56.3063394,155 L68.3507542,174.922019 C70.5489613,178.483138 66.4602784,196.508194 66.4602784,196.508194 L64.6141073,234.98658 L61.5371584,273.758308 L61.5371584,278 L51.3832149,277.697021 L47.998567,236.198481 L43.0754424,204.9916 L35.0753644,228.926976 L21.844472,258.315979 C20.7147682,261.941028 19.3264817,265.482992 17.6899728,268.915439 L15.2284128,273.157153 L6,272.094915 L19.998287,225.594206 L22.7675599,195.296262 C23.0752773,178.329413 28.6137908,168.937053 28.6137908,168.937053 L28.6137908,165.301301 L56.3063394,155 Z" id="Path" fill="#2F2E41"></path>
            <path d="M12.2420763,276.693004 C12.2420763,276.693004 13.7143018,274.305605 13.7143018,275.200878 C13.7143018,276.096151 17.5420854,278.483554 17.5420854,278.483554 C17.5420854,278.483554 21.3698734,277.886706 21.9587619,282.363079 C22.5476503,286.839452 16.6587527,287.734734 15.1865272,287.436305 C13.7143018,287.137876 9.88651811,287.734734 9.88651811,287.734734 C9.88651811,287.734734 6.94206713,288.331583 2.23094643,287.734734 C-2.48017427,287.137885 1.642058,279.080407 2.23094643,277.588281 C2.81983486,276.096155 5.76428585,277.289853 5.76428585,277.289853 C11.0642994,278.781978 12.2420763,276.693004 12.2420763,276.693004 Z" id="Path" fill="#2F2E41"></path>
            <path d="M58.2420759,280.693006 C58.2420759,280.693006 59.7143014,278.305602 59.7143014,279.20088 C59.7143014,280.096157 63.5420849,282.483556 63.5420849,282.483556 C63.5420849,282.483556 67.3698685,281.886703 67.9587613,286.363081 C68.5476541,290.839459 62.6587523,291.734741 61.1865269,291.436308 C59.7143014,291.137874 55.8865179,291.734732 55.8865179,291.734732 C55.8865179,291.734732 52.9420669,292.331585 48.2309464,291.734732 C43.5198258,291.137879 47.642058,283.080405 48.2309464,281.588279 C48.8198348,280.096153 51.7642857,281.289854 51.7642857,281.289854 C57.0643079,282.78198 58.2420759,280.693006 58.2420759,280.693006 Z" id="Path" fill="#2F2E41"></path>
            <path d="M37.3611268,119.868629 C45.0000126,111.954433 53.2500123,131.739929 53.2500123,131.739929 C53.2500123,131.739929 56,139.045347 53.8611217,143.002445 C51.7222159,146.959543 56,155.786923 56,155.786923 C45.5360413,164.660864 35.1085632,172.86491 25.4444753,167.04943 C26.6666758,159.744017 22.6944602,156.09131 19.944445,149.090288 C17.1944299,142.089266 12,143.611228 12,143.611228 C12,143.611228 12.3055547,135.697031 13.2222234,129.304792 C14.138892,122.912553 22.3889055,120.512318 22.3889055,120.512318 C23.8845649,123.188952 29.7222365,127.78283 37.3611268,119.868629 Z" id="Path" fill="#3F3D56"></path>
            <path d="M49.048902,131 L51.9736266,150.66265 L64.32241,171.554217 C67.8970535,174.626507 64.6473767,182 64.6473767,182 L61.3977,179.849399 L60.7477666,176.162652 C60.7477666,176.162652 46.4491732,160.801187 42.8745151,157.11444 C39.2998571,153.427694 38,133.150601 38,133.150601 L49.048902,131 Z" id="Path" fill="#FBBEBE"></path>
            <path d="M51,135.49336 L38.2158058,137 C38.2158058,137 37.3026517,122.234945 39.2331132,118.547491 C41.1635748,114.860037 48.2605285,118.920341 48.2605285,118.920341 C50.0868231,119.221646 51,135.49336 51,135.49336 Z" id="Path" fill="#3F3D56"></path>
            <path d="M52.4709461,96.6484178 C44.7458314,100.513758 49.2028091,111.067771 48.2910391,115.496179 C46.7976743,122.749537 24.7752027,119.06344 24.7752027,119.06344 C22.0958283,118.580944 20.462902,88.7378637 35.1364311,89.0017396 C42.5328377,89.1347458 59.0880882,93.3374518 52.4709461,96.6484178 Z" id="Path" fill="#2F2E41"></path>
            <circle id="Oval" fill="#FBBEBE" cx="48" cy="104" r="1"></circle>
            <path d="M93.0546717,64.7769705 C105.098825,66.9830763 117.384865,64.7769705 129.378815,63.2820733 L165.830747,58.7520819 C167.304889,58.5663522 169.449926,57.6920639 170.317069,59.4814105 C170.805407,60.4825386 170.476805,62.6524045 170.513317,63.8030223 C170.609159,66.9740163 170.600031,70.1450103 170.513317,73.3160043 C170.349016,79.3771328 169.901753,85.4246714 169.331265,91.45862 C168.222235,103.268308 166.652251,115.014575 165.867258,126.869563 C165.465635,132.903511 165.264823,138.95558 165.442815,144.989529 C165.48389,146.430066 165.543221,147.870603 165.629935,149.30661 C165.725777,150.914757 166.451439,153.302063 164.685206,154.375671 C163.676583,154.99175 161.691283,154.96004 160.536614,155.141239 C158.711051,155.426629 156.885488,155.653128 155.023413,155.838858 C142.751065,157.057426 130.31898,156.550067 118.000992,156.477587 L80.8051428,156.287327 L71.7320939,156.237497 C70.9105905,156.237497 67.9486143,156.726736 67.4420205,155.757318 C67.2275168,155.345089 67.7980053,153.415313 67.8984113,152.898894 C68.0383711,152.047255 68.1905014,151.197127 68.3548021,150.348508 C69.4136287,144.39157 70.6641395,138.470871 71.923778,132.554702 C74.6301754,119.870726 77.4004675,107.12333 78.5140611,94.1675548 C79.0662939,87.6670171 78.7011813,81.1075896 79.3766397,74.6206418 C79.6915493,71.6081975 80.0657898,64.8856903 84.1048483,64.6184208 C87.5277792,64.3919212 91.0511161,64.6184208 94.4831748,64.6184208 C94.8612614,64.6184208 95.167761,64.3141988 95.167761,63.9389221 C95.167761,63.5636453 94.8612614,63.2594234 94.4831748,63.2594234 C91.2428002,63.2594234 87.9978617,63.1733535 84.7574871,63.2367734 C82.6033226,63.2775433 81.1063608,63.7849024 80.0794815,65.7509186 C77.4552344,70.7973291 77.724505,77.5288963 77.6423547,83.0373659 C77.4461066,96.2241709 75.4060398,109.130117 72.7498454,122.027002 C71.4126204,128.51848 69.9704255,134.987308 68.6423283,141.483315 C68.0170729,144.586359 67.4192009,147.698463 66.871532,150.819628 C66.6159531,152.305465 65.3243672,155.580649 66.4607803,156.944176 C67.5971933,158.307703 71.0931468,157.573845 72.6585672,157.582905 L83.5480515,157.646325 L104.414238,157.764104 C117.896022,157.841114 131.423445,158.217104 144.900666,157.822994 C151.335776,157.632735 158.135998,157.369995 164.402244,155.843388 C166.268882,155.390389 167.167972,154.538751 167.240995,152.563674 C167.350529,149.5014 166.848499,146.343996 166.784604,143.268132 C166.328213,116.948882 172.557947,90.9965608 171.919,64.6682507 C171.877925,62.8789041 172.557947,58.3670326 170.586339,57.2843647 C169.700941,56.7951256 168.550836,57.0623951 167.619799,57.1711149 C165.839875,57.3749645 164.064515,57.624114 162.284591,57.8324936 L139.168397,60.6954482 C131.77943,61.6014465 124.395027,62.5799246 116.992369,63.4134431 C109.156139,64.3194413 101.242322,64.8585103 93.433476,63.4134431 C92.5708974,63.2548934 92.2012209,64.5640609 93.0683634,64.7226106 L93.0546717,64.7769705 Z" id="Path" fill="#E6E6E6"></path>
            <path d="M79.6623551,79.9992249 L171.334206,76.1724244 C172.219636,76.1333754 172.224224,74.9619058 171.334206,75.0009548 L79.6623551,78.8277553 C78.7815034,78.8628994 78.7769295,80.034369 79.6623551,79.9992249 Z" id="Path" fill="#E6E6E6"></path>
            <path d="M105.638617,71.2793229 C105.107209,71.9359918 104.888524,72.8564899 105.054411,73.7383868 C105.220298,74.6202837 105.749311,75.349563 106.467641,75.6866194 C107.727571,76.3583635 109.207637,75.7958461 110.4582,75.4299367 C112.331701,74.8838033 114.205203,74.3977446 116.130226,73.9990672 C120.319994,73.1341875 124.563821,72.6738739 128.818515,72.6228111 C130.757589,72.5955044 132.682612,72.6992698 134.621686,72.7975738 C136.026812,72.8631098 137.539664,72.9941818 138.729338,71.9783737 C140.087627,70.8205709 140.527899,68.5595786 139.197713,67.1505545 C137.324212,65.1571676 133.286816,66.3149704 131.122922,66.5225011 C123.271002,67.2830698 115.470023,68.6403652 107.769725,70.5857335 C106.889179,70.8041869 107.259196,72.3879737 108.144425,72.164059 C113.224737,70.8861069 118.34408,69.8593761 123.502454,69.0838667 C126.037926,68.7197778 128.578082,68.4121226 131.122922,68.1609013 C132.321963,68.0462133 133.521004,67.9424479 134.720045,67.8605279 C135.18842,67.8277599 135.684898,67.7676852 136.162641,67.7840692 C137.647391,67.8222986 137.82069,67.5110025 136.930776,69.6026934 C136.139222,71.4540856 136.392145,71.2410936 135.019805,71.1810189 C134.439019,71.1810189 133.858234,71.1045603 133.277448,71.0717923 C132.087775,71.013538 130.898101,70.9825905 129.708428,70.9789496 C127.176078,70.9789496 124.649974,71.1209443 122.130114,71.4049336 C119.994322,71.6452323 117.863214,71.983835 115.750841,72.4207417 C114.430023,72.6938084 113.118572,73.0105658 111.811804,73.3600912 C111.235703,73.5184698 110.654917,73.6823099 110.078816,73.8516112 C109.802474,73.9389926 109.521449,74.0154512 109.245107,74.0973712 C108.220927,74.5124326 107.348187,73.9662992 106.626889,72.4589711 C107.254512,71.6998457 106.26624,70.5365815 105.633933,71.3011683 L105.638617,71.2793229 Z" id="Path" fill="#E6E6E6"></path>
            <path d="M123.571191,88.1470728 C117.327342,87.8689946 110.582948,89.8105767 106.470724,95.5955976 C103.251711,100.119335 101.417822,107.880698 104.826697,112.975489 C108.490158,118.43774 116.524746,117.474398 121.370526,115.145492 C126.496782,112.662651 132.106323,107.543031 133.646789,101.1373 C135.566978,93.1375844 129.331758,87.0893823 122.837636,87 C122.48936,87.0146373 122.213588,87.3437935 122.213588,87.7448525 C122.213588,88.1459114 122.48936,88.4750677 122.837636,88.489705 C126.539933,88.5393618 130.173189,90.3667332 131.899201,94.3343141 C133.707199,98.5154193 132.149473,102.905083 129.741686,106.251954 C125.884048,111.580132 119.851635,115.597369 113.707031,115.483159 C110.017679,115.418605 105.939975,113.96366 104.796492,109.484613 C103.855815,105.854699 104.57211,101.887118 106.211822,98.6693555 C109.758777,91.717399 116.977824,89.3636652 123.597082,89.6616062 C124.429883,89.696366 124.429883,88.206661 123.597082,88.1719012 L123.571191,88.1470728 Z" id="Path" fill="#E6E6E6"></path>
            <path d="M118.006837,101.324009 C117.527974,101.077077 116.991586,101.188795 116.585657,101.62001 C116.179729,102.051226 115.96087,102.741801 116.005784,103.449715 C116.120348,105.522278 117.762434,106.106847 118.995908,105.984619 C120.061354,105.857077 121.306284,105.309707 120.932041,103.455029 C120.792706,102.790785 120.452592,102.243769 120.000253,101.956407 C119.658535,101.767745 119.287843,101.70372 118.92335,101.770408 C118.782055,101.770408 117.48748,102.429376 118.037388,101.637551 L117.13615,101.472809 C117.338743,101.75086 117.439855,102.141712 117.411104,102.535662 C117.414616,102.818219 117.524672,103.077375 117.700846,103.217935 C117.877019,103.358496 118.093335,103.359736 118.270335,103.221202 C118.537582,103.065528 118.845115,103.133678 119.064396,103.397168 C119.283678,103.660658 119.376951,104.074119 119.305231,104.464739 C119.241727,104.84479 119.383875,105.233324 119.642078,105.385443 C119.900281,105.537562 120.199689,105.40917 120.351583,105.081194 C120.733464,104.124627 121.195539,102.22212 120.622718,101.223038 C120.240838,100.548127 119.503809,100.750069 119.045552,101.143324 C118.762716,101.421851 118.499332,101.736779 118.258878,102.083949 C117.796803,102.652575 117.495118,102.918289 117.666964,101.828864 C117.953374,99.8466439 119.312868,98.2683074 120.55398,97.476482 L119.713843,96.5783714 C119.273386,98.8817785 118.485828,101.028429 117.403466,102.875774 L118.38108,103.439086 C118.324257,101.944059 118.947533,100.560121 119.939152,99.9795005 L119.377788,99.9795005 L119.675655,100.659726 C119.56491,101.664122 120.668544,102.094578 120.779289,101.079553 C120.924404,99.7669299 120.32867,98.0610511 119.225036,98.704077 C117.907548,99.4693311 117.223983,101.568465 117.250714,103.439086 C117.250714,104.076798 117.899911,104.571025 118.232147,104.007713 C119.446625,101.954489 120.333137,99.5650402 120.832753,96.9981982 C120.886997,96.6870175 120.804034,96.3606241 120.621254,96.1661151 C120.438473,95.9716061 120.190386,95.9457061 119.988797,96.1000876 C118.844821,96.8196845 117.87806,97.9913199 117.208707,99.4693311 C116.742813,100.532184 116.158536,102.190234 116.632068,103.412515 C116.787783,103.80485 117.049117,104.095035 117.358579,104.219232 C117.668041,104.343428 118.000282,104.291463 118.282211,104.074768 L118.293248,104.066175 C118.646321,103.774845 118.968861,103.417197 119.251768,103.003322 C119.393063,102.827951 119.549634,102.525038 119.736756,102.471896 C119.904783,102.312468 119.897145,102.40281 119.710024,102.753552 C119.707541,103.304242 119.592291,103.842535 119.377788,104.305317 L120.42414,104.916457 C120.616741,103.902781 120.362972,102.826274 119.776317,102.168337 C119.189661,101.510401 118.37983,101.394077 117.708971,101.871384 L118.57202,102.562238 C118.590085,101.885973 118.437408,101.222255 118.140496,100.686303 C118.049212,100.476962 117.894618,100.336545 117.720168,100.304521 C117.545719,100.272497 117.370247,100.352322 117.243077,100.521561 C116.662618,101.366529 116.551873,102.827951 117.281265,103.609148 C117.827354,104.188403 118.09467,103.609148 118.694222,103.476292 C120.729645,103.109607 119.541997,104.385031 118.824061,104.427545 C118.503012,104.475455 118.178393,104.443059 117.865542,104.331888 C117.068684,103.956347 117.01904,103.472749 117.716608,102.881094 C118.400174,103.269035 118.694222,101.727899 118.022113,101.345272 L118.006837,101.324009 Z" id="Path" fill="#E6E6E6"></path>
            <path d="M115.764498,101.925015 C116.239901,103.929227 114.276446,104.590617 113.344965,105.282071 C112.6913,105.75729 112.121299,106.404065 111.67139,107.181062 C110.697393,108.874621 110.334077,111.029149 110.013276,113.058414 C109.866403,114.005405 110.983408,114.406247 111.134146,113.459257 C111.310967,111.968122 111.639797,110.514042 112.112008,109.135169 C112.80772,107.341399 113.804908,106.740135 115.103571,105.818197 C116.402234,104.89626 117.341446,103.468258 116.881502,101.524172 C116.665059,100.602235 115.544189,100.998067 115.764498,101.925015 L115.764498,101.925015 Z" id="Path" fill="#E6E6E6"></path>
            <path d="M117.557033,101 C116.856442,101.100271 116.344664,101.735964 116.375718,102.467344 C116.375718,103.049391 116.749013,103.421118 117.004177,103.885777 C117.609876,104.836457 118.071963,105.877193 118.374503,106.972092 C118.601315,108.023688 118.823402,109.90678 118.294173,110.88501 C117.316045,112.699626 115.548798,112.352354 114.04144,112.352354 C112.623862,112.352354 111.527602,112.841469 111.574854,110.796969 C111.603206,109.64755 112.378148,108.483456 112.992432,107.578594 L111.697711,107.402513 C111.970831,108.896014 112.114733,110.411752 112.12771,111.931716 C112.12771,112.611585 113.13419,112.988204 113.446057,112.298552 C114.205721,110.644396 114.80865,108.917895 115.246381,107.143282 L113.852429,106.947636 L114.098143,110.664908 C114.106525,110.990642 114.320144,111.2722 114.623875,111.357841 C114.927605,111.443483 115.249667,111.312968 115.41649,111.036636 C115.581993,110.847589 115.703253,110.621659 115.770885,110.376331 C115.818137,110.146447 115.383413,108.595953 115.208579,109.148653 L116.597805,109.344298 L116.697036,105.81289 L115.279458,106.008536 C115.5791,107.004359 115.669326,108.055041 115.544072,109.089959 C115.454292,109.90678 116.78209,110.092644 116.96165,109.285605 L117.849999,104.541191 L116.555278,104.712381 C116.862892,105.36861 116.947793,106.113022 116.796266,106.825357 C116.69231,107.764458 118.109888,107.754675 118.213844,106.825357 C118.334243,105.851387 118.183421,104.862082 117.77912,103.973818 C117.632344,103.723621 117.35667,103.586758 117.076295,103.624889 C116.795919,103.66302 116.563756,103.868948 116.484399,104.149899 L115.591325,108.894313 L116.985276,109.089959 C117.127027,107.923978 117.018936,106.73999 116.668684,105.622135 C116.570849,105.274056 116.242082,105.05212 115.894907,105.09979 C115.547733,105.147461 115.286237,105.450447 115.279458,105.81289 L115.180227,109.344298 C115.188053,109.706785 115.449387,110.009555 115.796491,110.058272 C116.143594,110.106989 116.473383,109.887186 116.574179,109.539944 L116.649783,109.300278 C116.716328,109.046124 116.648028,108.774494 116.470223,108.58617 C115.000667,106.932962 114.702976,109.5644 114.192648,110.293181 L115.515721,110.664908 L115.270007,106.947636 C115.218029,106.15527 114.083967,105.910713 113.876056,106.75199 C113.476692,108.406373 112.922803,110.016622 112.222215,111.559988 L113.545287,111.931716 C113.530039,110.280236 113.371899,108.63349 113.072761,107.011221 C112.949905,106.336242 112.094633,106.365589 111.77804,106.83514 C110.832988,108.24379 109.198049,111.320322 110.459693,113.007768 C111.560678,114.475113 115.024294,113.907739 116.5033,113.814808 C118.837578,113.677856 119.6834,112.146926 119.938564,109.867651 C120.060128,108.776186 120.001002,107.671256 119.763729,106.600364 C119.636147,106.023209 118.346151,102.36463 117.95868,102.437998 C118.856479,102.266807 118.473733,100.848374 117.580659,101.019565 L117.557033,101 Z" id="Path" fill="#E6E6E6"></path>
            <path d="M114.805845,101.810616 L110.339766,106.54915 L111.752116,107.211055 L115.023969,103.4062 L113.529822,102.897717 L111.899349,107.89926 C111.808668,108.212745 112.01165,108.533227 112.380352,108.658703 C112.749054,108.784178 113.176597,108.678274 113.393495,108.407743 C114.13544,107.419503 114.968459,106.477341 115.885557,105.58917 L114.522285,104.949183 C114.156159,106.081607 113.45029,107.124625 112.46647,107.986929 L113.835195,108.626916 C113.918969,108.021206 114.119497,107.429664 114.429582,106.873527 C114.84947,106.115186 113.518916,105.444515 113.017232,106.207239 C112.555849,106.901954 112.028996,107.567262 111.44129,108.197336 L112.935436,108.355141 L113.268074,107.105851 L111.773928,106.948046 L112.013864,108.043914 C112.093987,108.268221 112.315132,108.442035 112.595902,108.501382 C112.876673,108.560728 113.175574,108.496837 113.382589,108.333224 C114.765656,107.182732 115.874605,105.838158 116.654442,104.366181 L115.247545,104.366181 C115.617413,104.914339 115.876925,105.506136 116.016431,106.11957 C116.212742,106.908595 117.51603,106.614902 117.619639,105.944231 C117.853869,104.475902 117.974069,102.997269 117.979543,101.516923 L116.343616,101.516923 L116.343616,104.274128 C116.343616,104.988634 117.799591,105.199041 117.952277,104.449467 C118.060278,103.784455 118.332837,103.143559 118.753881,102.564573 L117.319719,102.564573 C117.665351,103.01275 117.853772,103.527722 117.865028,104.054954 C117.865028,104.418093 118.231243,104.712475 118.682991,104.712475 C119.13474,104.712475 119.500954,104.418093 119.500954,104.054954 L119.708172,103.17826 L118.132229,103.17826 C118.290369,103.954134 118.890209,108.324457 116.758051,107.81159 C116.398147,107.741455 116.294538,107.758989 116.447225,107.859809 L116.93255,107.026949 L118.072245,105.08507 L116.54538,104.751926 C116.643536,105.654922 116.747145,106.943663 116.070962,107.715154 C115.525653,108.341991 113.846102,108.591849 112.989967,108.223637 C112.42478,107.899741 111.941714,107.492087 111.566711,107.022565 L110.448827,107.89926 C111.35404,108.42966 112.820921,109.731551 113.987882,109.806071 C114.876735,109.863056 115.623808,109.271287 116.207289,108.797872 C118.015935,107.29544 118.979663,105.262857 118.873849,103.173876 C118.873849,102.810737 118.507635,102.516355 118.055886,102.516355 C117.604137,102.516355 117.237923,102.810737 117.237923,103.173876 L117.237923,104.673024 C117.237923,105.036163 117.604137,105.330545 118.055886,105.330545 C118.507635,105.330545 118.873849,105.036163 118.873849,104.673024 L118.873849,100.99529 C118.873849,100.632151 118.507635,100.337769 118.055886,100.337769 C117.604137,100.337769 117.237923,100.632151 117.237923,100.99529 C117.234957,101.876812 117.140105,102.756585 116.954362,103.625374 L118.563023,103.800713 C118.43493,102.753369 118.374865,101.701368 118.383071,100.648996 C118.377788,100.323397 118.076834,100.049951 117.675449,100.006052 C117.274065,99.9621538 116.893168,100.161028 116.779863,100.473657 C116.534474,101.3109 116.234554,102.134993 115.945541,102.954702 L117.439687,102.796897 L117.325172,102.44622 C117.248829,101.608976 115.612902,101.604593 115.689246,102.44622 C115.707207,102.80111 115.822665,103.148405 116.027337,103.463185 C116.343616,103.997969 117.330625,103.80948 117.521483,103.30538 C117.832309,102.481287 118.110417,101.657194 118.355806,100.824335 L116.747145,100.648996 C116.738938,101.701368 116.799004,102.753369 116.927097,103.800713 C117.008893,104.475768 118.361259,104.765077 118.530305,103.976052 C118.748123,102.986015 118.863035,101.98312 118.873849,100.977756 L117.237923,100.977756 L117.237923,104.65549 L118.873849,104.65549 L118.873849,103.156342 L117.237923,103.156342 C117.334104,104.809949 116.619451,106.427895 115.247545,107.662482 C115.035051,107.856694 114.805427,108.038348 114.560456,108.206033 C114.173287,108.504109 113.818836,108.460274 113.50801,108.070145 C112.733672,107.81152 111.932068,107.145232 111.255885,106.755103 C110.579702,106.364974 109.652676,107.136465 110.132548,107.653715 C111.386759,108.995058 113.257168,110.489822 115.585637,109.845452 C118.034074,109.148479 118.366712,106.483328 118.181307,104.729939 C118.121323,104.146937 117.036158,103.752424 116.659895,104.401178 C116.114586,105.326091 115.569278,106.24662 115.023969,107.175917 C114.74142,107.522153 114.572576,107.92028 114.533191,108.333154 C114.713143,109.319435 116.201836,109.157246 117.117955,109.100261 C120.667915,108.885471 120.106247,104.839526 119.697266,102.805594 C119.560938,102.130539 118.339447,102.235743 118.121323,102.805594 C117.948043,103.205999 117.857773,103.626569 117.854122,104.050501 L119.490048,104.050501 C119.430768,103.296765 119.168418,102.56239 118.721163,101.898215 C118.572376,101.698769 118.304294,101.576722 118.014988,101.576722 C117.725682,101.576722 117.4576,101.698769 117.308813,101.898215 C116.821179,102.574906 116.49218,103.31779 116.338163,104.089952 L117.97409,104.265291 L117.97409,101.508086 C117.97409,101.144947 117.607875,100.850565 117.156126,100.850565 C116.704378,100.850565 116.338163,101.144947 116.338163,101.508086 C116.33269,102.988432 116.212489,104.467065 115.978259,105.935394 L117.58692,105.760055 C117.401833,105.043425 117.0877,104.352328 116.654442,103.70859 C116.505655,103.509143 116.237573,103.387097 115.948267,103.387097 C115.658962,103.387097 115.39088,103.509143 115.242092,103.70859 C114.530936,105.081427 113.508364,106.335974 112.226534,107.408241 L113.59526,107.69755 L113.355324,106.601682 C113.229903,106.01868 112.204722,106.001146 111.861177,106.443877 C111.313357,107.110098 111.13368,107.929081 111.364946,108.705749 C111.501274,109.328202 112.482829,109.26245 112.859093,108.863554 C113.446759,108.234994 113.973616,107.571144 114.435035,106.877841 L113.022685,106.211553 C112.645601,106.866538 112.388457,107.561955 112.259253,108.276168 C112.161097,108.854787 113.017232,109.459706 113.627978,108.916155 C114.800268,107.88502 115.649072,106.643633 116.10368,105.295407 C116.305445,104.699254 115.280264,104.133786 114.734955,104.65542 C113.731725,105.621855 112.820308,106.647556 112.008411,107.723851 L113.502557,108.232334 L115.165749,103.248325 C115.25643,102.93484 115.053449,102.614358 114.684746,102.488882 C114.316044,102.363407 113.888501,102.469311 113.671603,102.739842 L110.39975,106.54908 C109.789004,107.254819 111.190447,107.864122 111.8121,107.210984 L116.26182,102.476834 C116.894378,101.801779 115.476575,101.161792 114.84947,101.810546 L114.805845,101.810616 Z" id="Path" fill="#E6E6E6"></path>
            <path d="M173.023802,119.89827 C178.451365,116.636566 182.766278,111.770673 187.560626,107.700209 C192.762041,103.287578 198.221265,99.1771201 203.843315,95.2844057 C214.761764,87.7300514 226.227491,80.9711262 237.684172,74.2299759 C237.992746,74.038189 238.09148,73.64086 237.907574,73.3309457 C237.723669,73.0210315 237.323096,72.9097044 237.001204,73.0790478 C225.544523,79.8201981 214.074272,86.5657921 203.155824,94.1334776 C198.004162,97.6884679 192.97462,101.456758 188.153135,105.456122 C182.90649,109.810985 178.234263,115.232345 172.322742,118.747341 C171.576452,119.191715 172.25942,120.347087 173.00571,119.89827 L173.023802,119.89827 Z" id="Path" fill="#E6E6E6"></path>
            <path d="M257.208973,51.0041146 C250.990945,51.6317829 244.294606,53.205709 240.468127,58.6122163 C237.163006,63.2626685 237.234752,71.374807 240.338984,76.1488908 C243.864127,81.5744184 251.067474,81.769376 256.6637,80.0147575 C262.259926,78.260139 268.052258,75.1836129 267.999644,68.536034 C267.970946,64.9697363 266.674726,61.2560316 265.244579,58.0225884 C264.01054,55.2313661 261.824664,52.7920185 258.514759,53.1010976 C257.601187,53.1866887 257.591621,54.6132078 258.514759,54.5276167 C262.948692,54.1186812 264.374055,59.3540062 265.426337,62.6587754 C266.382957,65.7448117 267.26783,69.3967005 265.765937,72.4637165 C264.264044,75.5307325 260.643238,77.0951485 257.548573,78.2173435 C254.200404,79.4251296 250.522201,80.1621645 247.025756,79.1683562 C240.099829,77.2425554 238.186589,68.5170137 240.181141,62.325921 C242.477029,55.1933256 250.608297,53.0963425 257.232889,52.4306336 C258.141677,52.3402874 258.151244,50.9137683 257.232889,51.0041146 L257.208973,51.0041146 Z" id="Path" fill="#E6E6E6"></path>
            <path d="M266.208973,104.004115 C259.990945,104.631783 253.294606,106.205709 249.468127,111.612216 C246.163006,116.262668 246.234752,124.374807 249.338984,129.148891 C252.864127,134.574418 260.067474,134.769376 265.6637,133.014758 C271.259926,131.260139 277.052258,128.183613 276.999644,121.536034 C276.970946,117.969736 275.674726,114.256032 274.244579,111.022588 C273.01054,108.231366 270.824664,105.792018 267.514759,106.101098 C266.601187,106.186689 266.591621,107.613208 267.514759,107.527617 C271.948692,107.118681 273.374055,112.354006 274.426337,115.658775 C275.382957,118.744812 276.26783,122.396701 274.765937,125.463717 C273.264044,128.530733 269.643238,130.095148 266.548573,131.217343 C263.200404,132.42513 259.522201,133.162164 256.025756,132.168356 C249.099829,130.242555 247.186589,121.517014 249.181141,115.325921 C251.477029,108.193326 259.608297,106.096343 266.232889,105.430634 C267.141677,105.340287 267.151244,103.913768 266.232889,104.004115 L266.208973,104.004115 Z" id="Path" fill="#E6E6E6"></path>
            <path d="M248.173471,66.601704 L252.708279,71.7963074 C252.890874,71.9733049 253.152478,72.0412089 253.397586,71.9752289 C253.642695,71.9092488 253.835431,71.7190422 253.905431,71.4740496 C254.863151,68.9440853 254.681184,66.3227346 254.906249,63.6629052 C255.154411,60.9137946 255.841589,58.2227411 256.941406,55.6930369 C259.150707,50.5620797 262.896555,46.249898 267.658303,43.3558539 C268.448423,42.8748722 267.725344,41.6243195 266.935224,42.1101111 C262.240054,44.9498991 258.473473,49.1059846 256.098635,54.0673185 C254.936115,56.481581 254.129563,59.0529174 253.704333,61.7004995 C253.225473,64.8220714 253.661236,68.0927476 252.51197,71.0892641 L253.71391,70.7670063 L249.203045,65.5820226 C248.590103,64.884599 247.579708,65.9090902 248.18786,66.601704 L248.173471,66.601704 Z" id="Path" fill="#E6E6E6"></path>
            <path d="M173.662681,124.999606 C197.215571,124.301491 220.774549,124.153586 244.339616,124.555889 C244.708171,124.54281 245,124.248686 245,123.890313 C245,123.53194 244.708171,123.237817 244.339616,123.224738 C220.780637,122.816518 197.221659,122.964424 173.662681,123.668455 C172.781393,123.695078 172.776822,125.026229 173.662681,124.999606 Z" id="Path" fill="#E6E6E6"></path>
            <path d="M251.426369,111.35993 C259.285801,114.495925 266.845889,118.357847 274.011719,122.897211 C274.742723,123.350364 275.415781,122.185761 274.684777,121.723544 C267.424553,117.128126 259.764356,113.220625 251.800786,110.050318 C251.002922,109.728579 250.655249,111.042723 251.448656,111.35993 L251.426369,111.35993 Z" id="Path" fill="#E6E6E6"></path>
            <path d="M265.902353,105.22673 C258.058511,114.766745 253.514798,126.779893 253.00069,139.33751 C252.965595,140.22083 254.281644,140.22083 254.316738,139.33751 C254.815065,127.140431 259.222199,115.470644 266.832361,106.197008 C267.380714,105.528798 266.455093,104.553942 265.902353,105.22673 L265.902353,105.22673 Z" id="Path" fill="#E6E6E6"></path>
            <path d="M83.6608885,123.024802 L133.362534,122.410774 L139.076645,122.339278 C140.103851,122.339278 141.131057,122.305632 142.158263,122.301427 C143.603466,122.301427 144.57731,123.436957 144.55063,124.824828 C144.483928,127.768796 142.527345,127.663654 139.966001,127.768796 L133.789425,128.033753 L108.638445,129.080964 C104.133858,129.270219 99.6248242,129.501531 95.1202373,129.64873 C91.0558816,129.766488 83.3273801,128.513199 85.1327723,122.91966 C85.3817919,122.141611 84.0966728,121.809363 83.8432065,122.583206 C82.9538507,125.333714 84.5280104,128.126278 87.0626743,129.568822 C90.6601183,131.612777 95.4003844,130.918842 99.3713578,130.750615 L130.249789,129.425829 L137.747058,129.110404 C139.668067,129.026291 142.340581,129.39639 144.105952,128.55105 C146.178151,127.562718 146.542787,123.638829 145.235434,121.986002 C144.56397,121.144868 143.621253,121.069166 142.567366,121.031315 C139.80147,120.930379 136.986659,121.102811 134.216316,121.136457 L118.821568,121.329917 L83.6431014,121.750484 C83.2841916,121.762881 83,122.041659 83,122.381334 C83,122.72101 83.2841916,122.999788 83.6431014,123.012185 L83.6608885,123.024802 Z" id="Path" fill="#E6E6E6"></path>
            <polygon id="Path" fill="#F9A826" points="232 156.060521 218 147 222.088526 164 224.553026 157.806474 228.663545 163.727615 229.882643 162.751104 225.772124 156.829963"></polygon>
            <rect id="Rectangle" fill="#F9A826" x="231" y="165" width="24" height="10"></rect>
            <polygon id="Path" fill="#3F3D56" points="145 85.060521 159 76 154.911474 93 152.446974 86.8064745 148.336455 92.7276146 147.117357 91.7511036 151.227876 85.8299635"></polygon>
            <rect id="Rectangle" fill="#3F3D56" x="123" y="96" width="24" height="10"></rect>
        </g>
    </g>
</svg>