<?xml version="1.0" encoding="UTF-8"?>
<svg width="283px" height="271px" viewBox="0 0 283 271" version="1.1" xmlns="http://www.w3.org/2000/svg" xmlns:xlink="http://www.w3.org/1999/xlink">
    <title>Artboard</title>
    <g id="Shard" stroke="none" stroke-width="1" fill="none" fill-rule="evenodd">
        <g id="undraw_google_docs_jf93" transform="translate(169.500000, 116.000000) scale(-1, 1) translate(-169.500000, -116.000000) translate(-5.000000, -39.000000)">
            <rect id="Rectangle" fill="#E6E8EC" fill-rule="nonzero" x="162" y="52.2" width="164" height="210"></rect>
            <rect id="Rectangle" fill="#3F3D56" fill-rule="nonzero" x="200" y="90.2" width="84" height="2"></rect>
            <rect id="Rectangle" fill="#3F3D56" fill-rule="nonzero" x="200" y="97.2" width="84" height="2"></rect>
            <rect id="Rectangle" fill="#3F3D56" fill-rule="nonzero" x="200" y="103.2" width="84" height="2"></rect>
            <rect id="Rectangle" fill="#F9A826" fill-rule="nonzero" x="200" y="139.2" width="84" height="2"></rect>
            <rect id="Rectangle" fill="#F9A826" fill-rule="nonzero" x="200" y="145.2" width="84" height="2"></rect>
            <rect id="Rectangle" fill="#3F3D56" fill-rule="nonzero" x="200" y="153.2" width="84" height="2"></rect>
            <rect id="Rectangle" fill="#3F3D56" fill-rule="nonzero" x="200" y="170.2" width="84" height="2"></rect>
            <rect id="Rectangle" fill="#3F3D56" fill-rule="nonzero" x="200" y="176.2" width="84" height="2"></rect>
            <rect id="Rectangle" fill="#3F3D56" fill-rule="nonzero" x="200" y="183.2" width="84" height="2"></rect>
            <rect id="Rectangle" fill="#3F3D56" fill-rule="nonzero" x="200" y="200.2" width="84" height="2"></rect>
            <rect id="Rectangle" fill="#F9A826" fill-rule="nonzero" x="200" y="206.2" width="84" height="2"></rect>
            <rect id="Rectangle" fill="#3F3D56" fill-rule="nonzero" x="200" y="212.2" width="84" height="2"></rect>
            <rect id="Rectangle" fill="#3F3D56" fill-rule="nonzero" x="200" y="229.2" width="84" height="2"></rect>
            <rect id="Rectangle" fill="#3F3D56" fill-rule="nonzero" x="200" y="235.2" width="84" height="2"></rect>
            <rect id="Rectangle" fill="#3F3D56" fill-rule="nonzero" x="200" y="242.2" width="84" height="2"></rect>
            <path d="M337,277.2 L162,277.2 L162,44.2 L337,44.2 L337,277.2 Z M162.77951,276.41943 L336.22049,276.41943 L336.22049,44.9805695 L162.77951,44.9805695 L162.77951,276.41943 Z" id="Shape" fill="#3F3D56" fill-rule="nonzero"></path>
            <path d="M297.336094,61.7 C297.336458,59.7365334 298.352065,57.922577 300,56.9420489 C297.761087,55.6021644 294.913218,56.116895 293.248522,58.1623274 C291.583826,60.2077597 291.583826,63.1922403 293.248522,65.2376726 C294.913218,67.283105 297.761087,67.7978356 300,66.4579511 C298.352065,65.477423 297.336458,63.6634666 297.336094,61.7 L297.336094,61.7 Z" id="Path" fill="#3F3D56" fill-rule="nonzero"></path>
            <path d="M304.336094,61.7 C304.336458,59.7365334 305.352065,57.922577 307,56.9420489 C304.761087,55.6021644 301.913218,56.116895 300.248522,58.1623274 C298.583826,60.2077597 298.583826,63.1922403 300.248522,65.2376726 C301.913218,67.283105 304.761087,67.7978356 307,66.4579511 C305.352065,65.477423 304.336458,63.6634666 304.336094,61.7 L304.336094,61.7 Z" id="Path" fill="#F9A826" fill-rule="nonzero"></path>
            <circle id="Oval" fill="#3F3D56" fill-rule="nonzero" cx="312.5" cy="61.7" r="5.5"></circle>
            <path d="M306.305709,277.2 L305.845602,277.046844 C305.744496,277.013019 295.681672,273.589739 290.967807,265.827574 C286.253736,258.065046 288.561996,248.718939 288.585862,248.625633 L288.694504,248.2 L289.154396,248.353153 C289.255502,248.386981 299.318117,251.810257 304.032192,259.572423 C308.746266,267.33495 306.438003,276.681061 306.414137,276.774364 L306.305709,277.2 Z M291.722643,265.466249 C295.708045,272.029193 303.660008,275.393376 305.674793,276.161377 C306.057862,274.243978 307.259199,266.490373 303.277355,259.933748 C299.295931,253.377868 291.340831,250.008478 289.325209,249.23862 C288.941931,251.157134 287.741014,258.909996 291.722643,265.466249 Z" id="Shape" fill="#3F3D56" fill-rule="nonzero"></path>
            <path d="M296.672672,263.745557 C304.128515,268.810514 307,278.870916 307,278.870916 C307,278.870916 297.783172,280.719398 290.327328,275.654441 C282.871485,270.589485 280,260.529083 280,260.529083 C280,260.529083 289.216828,258.680605 296.672672,263.745557 Z" id="Path" fill="#F9A826" fill-rule="nonzero"></path>
            <path d="M195,107.2 C194.996613,122.669841 186.494944,136.887148 172.868418,144.210553 C172.366738,144.482776 171.857288,144.743331 171.340068,144.99222 C159.7106,150.62571 146.137148,150.601333 134.527989,144.926109 C133.540216,144.443869 132.575775,143.922758 131.634667,143.362776 C130.678005,142.802776 129.748564,142.2 128.846345,141.562221 C116.77757,133.076656 110.044986,118.881784 111.109868,104.16692 C112.17475,89.4520563 120.880983,76.3744659 134.045769,69.7150125 C136.602225,68.4155829 139.287069,67.3859543 142.056849,66.6427908 C143.277955,66.3122354 144.519802,66.0374206 145.78239,65.8183466 C148.166044,65.4049643 150.58093,65.1980856 153.000163,65.2 C153.497939,65.2 153.991826,65.2077911 154.485713,65.2311245 C154.847378,65.2389022 155.209043,65.2544578 155.570708,65.2777911 C159.351542,65.5037731 163.084071,66.2429554 166.665665,67.4750129 C166.972886,67.5800129 167.280107,67.6889017 167.583439,67.8016795 C168.641213,68.1905683 169.675653,68.6235312 170.68676,69.1005681 C185.51747,75.9838079 195.004209,90.8497592 195,107.2 Z" id="Path" fill="#3F3D56" fill-rule="nonzero"></path>
            <path d="M166.519299,63.4080723 C162.760588,54.1688693 153.192528,52.4239546 153.192528,52.4239546 C153.192528,52.4239546 143.979891,49.8635481 136.286122,62.0573719 C129.114912,73.4230191 119.867205,84.0716237 131.595139,88.6082066 L134.693078,81.8302478 L135.064724,89.6305831 C136.770132,90.0005754 138.493698,90.2730632 140.227691,90.446824 C153.23624,91.8235753 165.498823,94.112721 165.725933,89.215116 C166.027855,82.7044527 170.135937,72.2980492 166.519299,63.4080723 Z" id="Path" fill="#2F2E41" fill-rule="nonzero"></path>
            <path d="M134,138.407894 L133.71648,140.764938 L133.177791,145.2 C132.277614,144.744728 131.398701,144.252759 130.541051,143.724094 C129.669226,143.195411 128.822209,142.626342 128,142.024231 L128.085056,139.736944 L128.180744,137.2 L132.114589,138.018724 L134,138.407894 Z" id="Path" fill="#FFB8B8" fill-rule="nonzero"></path>
            <path d="M179,139.470561 C177.319069,140.874273 175.528605,142.121972 173.648204,143.2 L171.834271,136.498087 L171.595413,135.615576 L171,133.411145 L171.640415,133.304062 L178.196884,132.2 L178.408087,134.101645 L179,139.470561 Z" id="Path" fill="#FFB8B8" fill-rule="nonzero"></path>
            <circle id="Oval" fill="#FFB8B8" fill-rule="nonzero" cx="154.5" cy="72.7" r="11.5"></circle>
            <path d="M147.17071,75.2 C147.17071,75.2 148.102721,89.0253018 145.30669,89.8385544 C142.510659,90.651807 159.752854,89.8385544 159.752854,89.8385544 C159.752854,89.8385544 157.422828,81.2993983 159.752854,78.8596405 C162.08288,76.4198826 147.17071,75.2 147.17071,75.2 Z" id="Path" fill="#FFB8B8" fill-rule="nonzero"></path>
            <path d="M158.951218,88.5843235 C158.951218,88.5843235 147.536585,87.7195956 145.341464,88.5843235 C143.146343,89.4490513 137,93.7726905 137,93.7726905 L140.073169,121.011633 L165.09756,126.2 L169.048782,120.579269 L173,112.364351 L171.243903,101.987609 L170.804879,95.934514 L158.951218,88.5843235 Z" id="Path" fill="#D0CDE1" fill-rule="nonzero"></path>
            <path d="M134.382352,97.2 C134.382352,97.2 128.647061,98.4571423 128.205885,102.647617 C127.764709,106.838091 127.764709,117.314285 128.205885,118.990474 C128.647061,120.666664 128.205885,121.504763 127.764709,121.92381 C127.323533,122.342858 126.441176,121.504763 127.323529,122.761905 C128.205881,124.019047 128.205885,124.019047 127.764709,125.27619 C127.323533,126.533332 126,124.857142 126.882352,126.952379 C127.764705,129.047617 128.205885,129.466668 127.764709,129.885715 C127.323533,130.304763 126,139.942858 126,139.942858 L133.5,141.2 L141,116.47619 L134.382352,97.2 Z" id="Path" fill="#D0CDE1" fill-rule="nonzero"></path>
            <path d="M167.387104,96.2 C169.258454,96.2899174 170.925802,97.2470986 171.74194,98.7 C173.193552,101.2 177.064522,117.45 176.580647,118.7 C176.096771,119.950006 175.12903,118.283336 176.096771,120.783335 C177.064513,123.283334 176.096771,122.866668 176.580647,124.533334 C177.064522,126.2 174.645159,124.533334 176.580647,126.2 C178.516134,127.866674 179.483871,128.283336 178.516129,129.116669 C177.548388,129.950002 176.096771,128.283336 177.548388,129.950002 C179,131.616668 179,134.116667 179,134.116667 L167.387099,136.2 L164,112.866664 L167.387104,96.2 Z" id="Path" fill="#D0CDE1" fill-rule="nonzero"></path>
            <path d="M170.166289,136.827175 L170.688343,144.878695 C158.770978,150.664175 144.861503,150.639141 132.964949,144.8108 C131.952722,144.315549 130.964405,143.780379 130,143.205289 C130.334752,141.971202 130.67349,140.741108 131.020197,139.534978 C131.267277,138.676309 131.517012,137.830952 131.769405,136.998909 C133.726112,130.580857 135.834254,125.121319 137.810887,123.000606 C137.810887,123.000606 137.810887,118.196053 138.683634,117.756734 C139.103124,117.427263 139.423179,116.987614 139.608188,116.486703 C139.933062,115.765196 140.207373,115.021879 140.429128,114.262151 L138.986505,110.899363 L132.530568,95.8347139 C132.149106,94.9402877 132.527933,93.9028098 133.395345,93.4663849 L135.535368,92.3920501 C135.973263,92.1741993 136.479732,92.1402164 136.942696,92.2976216 C137.40566,92.4550268 137.786945,92.7908411 138.002174,93.2307501 L147.8415,113.387507 L158.740875,120.380667 L166.384385,116.973948 L166.587628,116.88209 C166.587628,116.88209 172.258491,108.143635 170.512997,103.774407 C169.767775,101.909298 168.946835,99.4171611 168.241464,97.1686463 C167.830994,95.8427016 167.46436,94.6006268 167.17743,93.6261373 C167.084821,93.3090492 167.199999,92.9677725 167.465652,92.77212 C167.731304,92.5764676 168.090697,92.5682247 168.365003,92.751493 L169.851463,93.7459516 C170.188393,93.9724469 170.454928,94.2893863 170.620596,94.6605339 C170.68941,94.8055428 170.740266,94.958443 170.772032,95.1158282 L174,110.767568 L169.64025,119.941348 L169.64025,128.679803 L169.943121,133.37253 L170.102527,135.828722 L170.166289,136.827175 Z" id="Path" fill="#2F2E41" fill-rule="nonzero"></path>
            <polygon id="Path" fill="#2F2E41" fill-rule="nonzero" points="165.526184 61.5225414 155.578815 56.2 141.842105 58.3772559 139 71.2 146.074707 70.9223198 148.051324 66.2110802 148.051324 70.8444883 151.315657 70.7163906 153.210526 63.2161879 154.394671 71.2 166 70.958398"></polygon>
            <ellipse id="Oval" fill="#FFB8B8" fill-rule="nonzero" cx="144" cy="71.2" rx="1" ry="2"></ellipse>
            <path d="M61,267.199925 C61,269.358509 61.1630427,271.514011 61.4899778,273.647691 C63.0616563,283.727953 68.2444477,292.892958 76.0725732,299.434867 C76.2864512,299.613755 76.504218,299.792644 76.7258734,299.967644 C77.1847391,300.337069 77.6513821,300.696143 78.1258026,301.044864 C78.8102124,301.550418 79.510177,302.033936 80.2256963,302.495417 C91.6381801,309.848796 105.897831,311.241957 118.517647,306.236521 C118.813188,306.119855 119.108728,305.999299 119.40038,305.874855 C119.867023,305.676522 120.325889,305.470411 120.784755,305.252634 C121.947474,304.712079 123.081676,304.11708 124.18736,303.467637 C125.326747,302.802638 126.428543,302.087084 127.492749,301.320974 C127.978835,300.970975 128.449367,300.617087 128.919899,300.247643 L128.927676,300.243754 C135.149685,295.357031 139.869332,288.816321 142.545876,281.37101 L142.545876,281.367121 C149.133102,262.921628 142.115368,242.370532 125.622288,231.80721 C125.252862,231.573877 124.879548,231.340545 124.502344,231.122767 C124.113475,230.881656 123.716829,230.656101 123.316293,230.438324 C117.925725,227.446842 111.938251,225.689563 105.786069,225.293333 C104.864449,225.231111 103.935052,225.2 102.997877,225.2 C102.951213,225.2 102.904549,225.2 102.857884,225.203889 C101.597948,225.203889 100.353567,225.262222 99.1247398,225.378889 C77.5227871,227.379266 61,245.5045 61,267.199925 L61,267.199925 Z" id="Path" fill="#3F3D56" fill-rule="nonzero"></path>
            <path d="M147,280.947951 C147,280.947951 158.507015,267.723629 161.575554,275.828855 C164.644092,283.93408 150.068538,288.2 150.068538,288.2 L147,280.947951 Z" id="Path" fill="#FFB8B8" fill-rule="nonzero"></path>
            <path d="M78,299.900735 C78.4582524,300.272838 78.9242718,300.634513 79.3980583,300.985762 C80.0815534,301.49498 80.7805825,301.982002 81.4951456,302.446827 C92.8923775,309.853498 107.132972,311.256756 119.735922,306.215044 C120.031068,306.097532 120.326214,305.976103 120.617476,305.850757 C121.083495,305.650987 121.541748,305.443382 122,305.224027 L120.924272,303.665035 C120.144302,302.928692 119.270616,302.30036 118.326237,301.796594 C110.967014,297.765934 97.1068194,297.89128 87.7281786,298.553264 C86.3922563,298.647274 85.1495379,298.753034 84.0310913,298.858795 C83.3320621,298.921468 82.679635,298.988058 82.0854602,299.050731 C81.8446835,299.078151 81.6155573,299.101653 81.3980816,299.125156 C79.3048777,299.36018 78.0505087,299.544282 78.0505087,299.544282 L78,299.900735 Z" id="Path" fill="#2F2E41" fill-rule="nonzero"></path>
            <circle id="Oval" fill="#FFB8B8" fill-rule="nonzero" cx="113.5" cy="231.7" r="12.5"></circle>
            <path d="M106.424628,233.2 L97.5388081,242.338465 L95,256.46154 L117.426105,260.2 L115.733569,247.323079 C115.733569,247.323079 116.156701,241.09231 117.849241,239.846155 C119.541781,238.600001 106.424628,233.2 106.424628,233.2 Z" id="Path" fill="#FFB8B8" fill-rule="nonzero"></path>
            <g id="Group" transform="translate(0.000000, 0.200000)"></g>
            <path d="M80,300.041686 C80.7079833,299.805642 81.4271519,299.607394 82.1546788,299.447722 C83.9856104,299.034552 85.8477542,298.787794 87.7199721,298.710251 C92.1506065,298.467977 96.5709439,299.356258 100.594274,301.29738 C106.478352,304.227335 113.460894,305.024601 118.261872,305.176082 C118.611383,305.188041 118.949372,305.196014 119.271997,305.2 C119.732891,304.996697 120.186103,304.785421 120.639316,304.562187 C121.787709,304.008087 122.907938,303.398178 124,302.73246 L123.984637,301.257517 L123.731145,272.077563 L123.731145,272.073576 L123.612081,258.125399 L115.942039,248.905011 L113.971718,246.600911 L113.034567,247.473918 L107.461592,252.680068 L99.338338,244.870843 L96.5576117,242.2 L83.2185754,288.804214 L81.497905,294.815604 L80.4839385,298.355467 L80.3264665,298.897608 L80.3264665,298.901595 L80,300.041686 Z" id="Path" fill="#575A89" fill-rule="nonzero"></path>
            <path d="M111.001423,260.040132 C111.022254,262.088915 111.204577,264.133393 111.546883,266.156628 C113.034499,275.124628 114.31137,290.033587 117.472554,300.799868 C117.885781,302.219769 118.336198,303.561653 118.823806,304.813818 L118.972567,305.2 C119.28662,305.082975 119.600672,304.96205 119.910592,304.837223 C120.406464,304.638281 120.894072,304.431537 121.381679,304.213091 C122.617227,303.670876 123.822472,303.07405 124.997413,302.422612 C126.208168,301.75557 127.378977,301.037818 128.509841,300.269355 L128.377608,299.777851 L128.377608,299.77395 L126.319739,291.995702 C126.319739,291.995702 127.642065,285.485223 128.699925,278.20238 L128.699925,278.198479 C129.914812,269.862413 130.782588,260.523835 128.9272,258.772364 L114.369221,246.2 L114.365089,246.203901 C113.911518,246.885818 113.521617,247.603673 113.19979,248.349355 C112.208045,250.568926 110.951836,254.485355 111.001423,260.040132 Z" id="Path" fill="#D0CDE1" fill-rule="nonzero"></path>
            <path d="M69,290.731967 C71.1693486,293.872268 73.7588854,296.703302 76.6969918,299.146772 C76.9113384,299.325233 77.1295823,299.503693 77.3517233,299.678274 C77.8115942,300.046816 78.2792595,300.40503 78.7547193,300.752917 C79.4406284,301.257263 80.1421264,301.739623 80.8592133,302.2 C81.389234,301.46676 81.9231519,300.721881 82.4570698,299.973122 C82.7727439,299.534748 83.088418,299.092476 83.4040921,298.646306 C83.9029351,297.940223 84.4018015,297.23026 84.8928267,296.516418 C84.9551821,296.431067 85.0136402,296.345717 85.0720984,296.260366 C85.6956522,295.364183 86.3114115,294.464121 86.911582,293.567939 C91.3388138,286.984294 95.0099866,280.664462 95.4308854,276.889632 C95.9375228,272.369924 96.9624893,265.378924 98.0030447,258.70217 C98.673365,254.364801 99.3514797,250.159339 99.8931921,246.857818 C100.547924,242.846334 101,240.161666 101,240.161666 C101,240.161666 79.5263671,238.024018 76.5177201,240.12287 L76.5138229,240.12287 C76.3391509,240.222673 76.2157403,240.392124 76.1747656,240.588419 C75.8473998,242.861852 77.6011448,263.990015 78.3260261,272.525087 L78.3260261,272.528967 C78.5130922,274.717049 78.6339057,276.074901 78.6339057,276.074901 C78.6339057,276.074901 77.4062843,277.708204 75.6057727,280.326919 C73.7701863,282.999968 71.3344294,286.697206 69,290.731967 Z" id="Path" fill="#D0CDE1" fill-rule="nonzero"></path>
            <path d="M127.408694,271.2 L129.519115,287.621054 L148.090823,279.621052 L154,291.83158 L123.609918,303.2 C123.609918,303.2 118.122843,274.147367 127.408694,271.2 Z" id="Path" fill="#D0CDE1" fill-rule="nonzero"></path>
            <path d="M124.335308,231.706364 C124.335308,231.706364 125.928754,230.039031 125.767476,227.951724 C125.661204,226.764366 125.739586,225.568275 126,224.403479 C126,224.403479 125.501281,220.987108 124.764881,219.006836 C124.02848,217.026565 124.649272,216.33741 121.483775,215.256306 C118.318277,214.175202 120.333476,210.265655 111.000643,213.381806 C110.274809,214.092005 109.179243,214.309217 108.22386,213.932344 C106.500826,213.320886 105.462465,215.614596 105.462465,215.614596 C105.462465,215.614596 104.38772,214.760171 103.784647,215.648482 C103.181575,216.536792 100.264854,214.512143 99.1953134,220.974593 C98.1257726,227.437042 101.79748,233.2 101.79748,233.2 C101.79748,233.2 102.312669,222.858543 108.373791,222.671066 C114.434913,222.48359 121.289244,220.258927 122.139386,224.613744 C122.583675,227.052778 123.320649,229.433135 124.335308,231.706364 Z" id="Path" fill="#2F2E41" fill-rule="nonzero"></path>
            <path d="M78,298.68669 C78.2066865,298.873974 78.417131,299.061259 78.6313335,299.244472 C79.0747701,299.631237 79.5257225,300.007163 79.9841909,300.372252 C80.6455878,300.901535 81.3220165,301.407746 82.013477,301.890886 C85.3430258,304.224819 88.9721823,306.013785 92.7837251,307.2 C93.7156935,304.610586 91.4834788,301.390103 88.9995011,298.800689 C88.6838344,298.470905 88.3606518,298.149264 88.044985,297.843909 C87.2933976,297.12327 86.5530839,296.471845 85.9029608,295.926276 C85.8728973,295.901848 85.8465917,295.881491 85.8202862,295.857062 C84.5914407,294.831068 83.7008096,294.2 83.7008096,294.2 L82.9116428,294.822925 L78,298.68669 Z" id="Path" fill="#FFB8B8" fill-rule="nonzero"></path>
            <path d="M61,272.714836 C62.5402681,282.827473 67.6194801,292.021913 75.2911585,298.584832 C75.5007622,298.764295 75.7141768,298.943758 75.9314024,299.11932 C76.3810976,299.489932 76.8384146,299.850159 77.3033537,300.2 L79.1097561,298.881336 L79.1097561,298.877435 L79.9405488,298.272722 L83.2217988,295.873379 L83.4809451,295.682212 L86,293.840764 L85.2797256,292.97466 L81.9794207,288.999162 L74.2240854,279.659278 L72.3757622,277.435496 L76.8841463,271.817521 L76.8841463,271.813619 L81.5907012,265.949858 L77.5853659,239.697527 C76.8268519,239.290977 75.9662766,239.127832 75.1158537,239.229363 L75.1120427,239.229363 C74.2050305,239.389319 73.2789634,240.029144 72.7759146,241.745747 C71.8650915,244.855141 64.5099085,263.749484 61,272.714836 Z" id="Path" fill="#D0CDE1" fill-rule="nonzero"></path>
        </g>
    </g>
</svg>