<?xml version="1.0" encoding="UTF-8"?>
<svg width="64px" height="84px" viewBox="0 0 64 84" version="1.1" xmlns="http://www.w3.org/2000/svg" xmlns:xlink="http://www.w3.org/1999/xlink">
    <!-- Generator: Sketch 64 (93537) - https://sketch.com -->
    <title>up arrow</title>
    <desc>Created with Sketch.</desc>
    <g id="FOMC" stroke="none" stroke-width="1" fill="none" fill-rule="evenodd">
        <g id="Desktop-HD-Copy" transform="translate(-3098.000000, -5830.000000)" fill="#00AE22" fill-rule="nonzero">
            <g id="up-arrow" transform="translate(3098.000000, 5830.000000)">
                <path d="M63.6288082,39.1801817 L33.4063541,0.680202512 C33.0698509,0.251672103 32.5358459,0 32.0016741,0 C31.4665024,0 30.9309973,0.250851792 30.5938274,0.680202512 L0.371206653,39.1801817 C-0.0437972935,39.7082978 -0.116631319,40.4226245 0.182038187,41.0207953 C0.480707694,41.6206066 1.09871357,42.0000824 1.77755336,42.0000824 L17.7777055,42.0000824 L17.7777055,82.2499487 C17.7777055,83.2172593 18.5728797,84 19.5555558,84 L44.4446258,84 C45.4273018,84 46.222476,83.2172593 46.222476,82.2499487 L46.222476,41.9999183 L62.2226282,41.9999183 C62.901468,41.9999183 63.5194738,41.6204425 63.8181433,41.0206312 C64.1166462,40.4224605 64.0436455,39.7081338 63.6288082,39.1801817 Z" id="Path"></path>
            </g>
        </g>
    </g>
</svg>